<?xml version="1.0" ?><svg version="1.1" viewBox="0.253560990095139 0 170.413446456194 170.147994995117" xmlns="http://www.w3.org/2000/svg" xmlns:xlink="http://www.w3.org/1999/xlink"><defs><radialGradient cx="0.499996" cy="0.580007" id="def0" r="0.550641"><stop offset="0" stop-color="#FFFFFF"/><stop offset="1" stop-color="#60C7E8"/></radialGradient><linearGradient gradientTransform="rotate(-15.2712 0.305541 0.553111)" id="def1" x1="0.305541" x2="1.10728" y1="0.553111" y2="0.553111"><stop offset="0" stop-color="#1397D3"/><stop offset="1" stop-color="#A2DDF7"/></linearGradient><linearGradient gradientTransform="rotate(196.65 0.914313 0.62392)" id="def2" x1="0.914313" x2="1.99834" y1="0.62392" y2="0.62392"><stop offset="0" stop-color="#1397D3"/><stop offset="1" stop-color="#A2DDF7"/></linearGradient><radialGradient cx="0.510005" cy="0.840036" id="def3" r="1.15838"><stop offset="0" stop-color="#A2DDF7"/><stop offset="0.509995" stop-color="#94CFF0"/><stop offset="1" stop-color="#2263AE"/></radialGradient><linearGradient id="def4" x1="0.500003" x2="0.500003" y1="-0.386318" y2="0.553706"><stop offset="0" stop-color="#27A4DD"/><stop offset="1" stop-color="#A2DDF7"/></linearGradient><radialGradient cx="0.510002" cy="0.839955" id="def5" r="1.15841"><stop offset="0" stop-color="#A2DDF7"/><stop offset="0.509995" stop-color="#94CFF0"/><stop offset="1" stop-color="#2263AE"/></radialGradient><linearGradient id="def6" x1="0.5" x2="0.5" y1="-0.415694" y2="0.544258"><stop offset="0" stop-color="#27A4DD"/><stop offset="1" stop-color="#A2DDF7"/></linearGradient><radialGradient cx="0.510021" cy="0.839974" id="def7" r="1.15843"><stop offset="0" stop-color="#A2DDF7"/><stop offset="0.509995" stop-color="#94CFF0"/><stop offset="1" stop-color="#2263AE"/></radialGradient><linearGradient id="def8" x1="0.500014" x2="0.500014" y1="-0.386433" y2="0.553595"><stop offset="0" stop-color="#27A4DD"/><stop offset="1" stop-color="#A2DDF7"/></linearGradient><radialGradient cx="0.510007" cy="0.839974" id="def9" r="1.15836"><stop offset="0" stop-color="#A2DDF7"/><stop offset="0.509995" stop-color="#94CFF0"/><stop offset="1" stop-color="#2263AE"/></radialGradient><linearGradient id="def10" x1="0.499999" x2="0.499999" y1="-0.386433" y2="0.553595"><stop offset="0" stop-color="#27A4DD"/><stop offset="1" stop-color="#A2DDF7"/></linearGradient></defs><g><path d="M1.16667,30.7533L82.8027,0.0880127 170.663,30.7533 86.4387,76.1387 1.16667,30.7533z" fill="url(#def0)"/><path d="M86.7565,64.998L89.6139,64.9247 92.3885,64.7233 95.0645,64.3953 97.6312,63.9433 100.071,63.3807 102.374,62.7087 104.522,61.9367 106.507,61.07 108.313,60.1233 109.913,59.09 111.317,57.9873 112.493,56.8153 113.431,55.5807 114.118,54.3007 114.542,52.9687 114.687,51.5993 114.542,50.2313 114.118,48.902 113.431,47.6167 112.493,46.3873 111.317,45.2167 109.913,44.1113 108.313,43.0793 106.507,42.13 104.522,41.2633 102.374,40.49 100.071,39.8233 97.6312,39.2553 95.0645,38.8073 92.3885,38.4753 89.6139,38.274 86.7565,38.2047 83.9032,38.274 81.1299,38.4753 78.4539,38.8073 75.8872,39.2553 73.4445,39.8233 71.1432,40.49 68.9925,41.2633 67.0085,42.13 65.2072,43.0793 63.5979,44.1113 62.2005,45.2167 61.0232,46.3873 60.0845,47.6167 59.3952,48.902 58.9712,50.2313 58.8285,51.5993 58.9712,52.9687 59.3952,54.3007 60.0845,55.5807 61.0232,56.8153 62.2005,57.9873 63.5979,59.09 65.2072,60.1233 67.0085,61.07 68.9925,61.9367 71.1432,62.7087 73.4445,63.3807 75.8872,63.9433 78.4539,64.3953 81.1299,64.7233 83.9032,64.9247 86.7565,64.998z" fill="#2364AE"/><path d="M1.16667,96.6067C0.945333,105.275,3.49867,107.723,9.66667,112.523L78.6333,166.276C81.7693,168.612,84.364,169.779,86.4387,169.828L86.4387,76.1387 1.16667,30.7533 1.16667,96.6067z" fill="url(#def1)"/><path d="M85.388,76.1387L85.388,169.828C87.464,169.779,90.0587,168.612,93.1947,166.276L162.163,112.523C167.885,108.069,170.493,105.641,170.667,98.392L170.667,96.7613C170.665,96.7107,170.664,96.6587,170.663,96.6067L170.663,30.7533 85.388,76.1387z" fill="url(#def2)"/><path d="M114.585,46.1653L114.16,47.4667 113.476,48.7213 112.528,49.9213 111.353,51.0667 109.949,52.144 108.343,53.1507 106.535,54.0813 104.544,54.9253 102.391,55.6787 100.084,56.3333 97.6387,56.8853 95.0667,57.3267 92.384,57.6467 89.604,57.8453 86.7427,57.9133 83.8813,57.8453 81.1027,57.6467 78.4227,57.3267 75.8507,56.8853 73.404,56.3333 71.0947,55.6787 68.944,54.9253 66.9533,54.0813 65.148,53.1507 63.536,52.144 62.132,51.0667 60.956,49.9213 60.016,48.7213 59.3253,47.4667 58.9013,46.1653 58.7547,44.8293 58.7547,51.1493 58.9013,52.484 59.3253,53.784 60.016,55.036 60.956,56.24 62.132,57.3827 63.536,58.4627 65.148,59.4707 66.9533,60.3973 68.944,61.2427 71.0947,61.9947 73.404,62.6493 75.8507,63.204 78.4227,63.6413 81.1027,63.9653 83.8813,64.1627 86.7427,64.232 89.604,64.1627 92.384,63.9653 95.0667,63.6413 97.6387,63.204 100.084,62.6493 102.391,61.9947 104.544,61.2427 106.535,60.3973 108.343,59.4707 109.949,58.4627 111.353,57.3827 112.528,56.24 113.476,55.036 114.16,53.784 114.585,52.484 114.732,51.1493 114.732,44.8293 114.585,46.1653z" fill="url(#def3)"/><path d="M83.8813,31.812L81.1027,32.0107 78.4227,32.3333 75.8507,32.772 73.4053,33.3227 71.0947,33.9787 68.9413,34.732 66.9533,35.58 65.148,36.5053 63.536,37.516 62.1333,38.5907 60.956,39.736 60.016,40.9387 59.3253,42.1947 58.9013,43.4947 58.7547,44.8293 58.9013,46.1653 59.3253,47.4667 60.016,48.7213 60.956,49.9213 62.1333,51.0667 63.536,52.144 65.148,53.1507 66.9533,54.0813 68.9413,54.9253 71.0947,55.6787 73.4053,56.3333 75.8507,56.8853 78.4227,57.3267 81.1027,57.6467 83.8813,57.8453 86.7427,57.9133 89.6053,57.8453 92.384,57.6467 95.0667,57.3267 97.6387,56.8853 100.084,56.3333 102.391,55.6787 104.544,54.9253 106.535,54.0813 108.343,53.1507 109.949,52.144 111.353,51.0667 112.528,49.9213 113.476,48.7213 114.16,47.4667 114.585,46.1653 114.732,44.8293 114.585,43.4947 114.16,42.1947 113.476,40.9387 112.528,39.736 111.353,38.5907 109.949,37.516 108.343,36.5053 106.535,35.58 104.544,34.732 102.391,33.9787 100.084,33.3227 97.6387,32.772 95.0667,32.3333 92.384,32.0107 89.6053,31.812 86.7427,31.7467 83.8813,31.812z" fill="url(#def4)"/><g><path d="M83.9824,24.9889L86.1637,24.9343 88.2837,24.7796 90.3264,24.5316 92.2891,24.1863 94.1557,23.7529 95.9131,23.2396 97.5531,22.6516 99.0704,21.9903 100.448,21.2649 101.674,20.4769 102.744,19.6329 103.645,18.7383 104.361,17.7969 104.888,16.8169 105.21,15.8009 105.32,14.7556 105.21,13.7089 104.888,12.6916 104.361,11.7116 103.645,10.7716 102.744,9.87827 101.674,9.03427 100.448,8.24361 99.0704,7.51828 97.5531,6.8596 95.9131,6.26894 94.1557,5.75827 92.2891,5.32494 90.3264,4.98094 88.2837,4.72894 86.1637,4.57428 83.9824,4.51961 81.8024,4.57428 79.6824,4.72894 77.6384,4.98094 75.6771,5.32494 73.8104,5.75827 72.0517,6.26894 70.4077,6.8596 68.8944,7.51828 67.5184,8.24361 66.2891,9.03427 65.2211,9.87827 64.3224,10.7716 63.6064,11.7116 63.0784,12.6916 62.7544,13.7089 62.6451,14.7556 62.7544,15.8009 63.0784,16.8169 63.6064,17.7969 64.3224,18.7383 65.2211,19.6329 66.2891,20.4769 67.5184,21.2649 68.8944,21.9903 70.4077,22.6516 72.0517,23.2396 73.8104,23.7529 75.6771,24.1863 77.6384,24.5316 79.6824,24.7796 81.8024,24.9343 83.9824,24.9889z" fill="#2364AE"/></g><path d="M105.244,10.604L104.919,11.596 104.393,12.556 103.672,13.472 102.771,14.348 101.705,15.172 100.471,15.94 99.0933,16.6507 97.5733,17.2947 95.9253,17.8707 94.164,18.3707 92.2947,18.7933 90.3307,19.1267 88.28,19.3747 86.1587,19.5253 83.972,19.58 81.7853,19.5253 79.6627,19.3747 77.612,19.1267 75.648,18.7933 73.78,18.3707 72.0187,17.8707 70.3693,17.2947 68.852,16.6507 67.4707,15.94 66.2427,15.172 65.172,14.348 64.2707,13.472 63.548,12.556 63.0267,11.596 62.6987,10.604 62.5893,9.58267 62.5893,14.408 62.6987,15.4293 63.0267,16.4213 63.548,17.38 64.2707,18.3 65.172,19.1747 66.2427,19.996 67.4707,20.768 68.852,21.476 70.3693,22.1227 72.0187,22.6973 73.78,23.1973 75.648,23.62 77.612,23.9547 79.6627,24.2 81.7853,24.3533 83.972,24.404 86.1587,24.3533 88.28,24.2 90.3307,23.9547 92.2947,23.62 94.164,23.1973 95.9253,22.6973 97.5733,22.1227 99.0933,21.476 100.471,20.768 101.705,19.996 102.771,19.1747 103.672,18.3 104.393,17.38 104.919,16.4213 105.244,15.4293 105.355,14.408 105.355,9.58267 105.244,10.604z" fill="url(#def5)"/><path d="M77.904,0L77.612,0.034668 75.648,0.372009 73.78,0.792007 72.0187,1.29201 70.3693,1.86934 68.852,2.51601 67.4707,3.22534 66.2427,3.99335 65.172,4.81734 64.2707,5.69067 63.548,6.608 63.0267,7.56801 62.6987,8.56 62.5893,9.58267 62.6987,10.604 63.0267,11.596 63.548,12.556 64.2707,13.472 65.172,14.348 66.2427,15.172 67.4707,15.94 68.852,16.6507 70.3693,17.2947 72.0187,17.8707 73.78,18.3707 75.648,18.7933 77.612,19.1267 79.6627,19.3747 81.7853,19.5253 83.972,19.58 86.1587,19.5253 88.28,19.3747 90.3307,19.1267 92.2947,18.7933 94.164,18.3707 95.9253,17.8707 97.5733,17.2947 99.0933,16.6507 100.471,15.94 101.705,15.172 102.771,14.348 103.672,13.472 104.393,12.556 104.919,11.596 105.244,10.604 105.355,9.58267 105.244,8.56 104.919,7.56801 104.393,6.608 103.672,5.69067 102.771,4.81734 101.705,3.99335 100.471,3.22534 99.0933,2.51601 97.5733,1.86934 95.9253,1.29201 94.164,0.792007 92.2947,0.372009 90.3307,0.034668 90.04,0 77.904,0z" fill="url(#def6)"/><g><path d="M36.9577,43.1328L39.2644,43.0755 41.5097,42.9101 43.6751,42.6448 45.7511,42.2808 47.7284,41.8261 49.5884,41.2808 51.3271,40.6568 52.9311,39.9595 54.3911,39.1901 55.6911,38.3528 56.8217,37.4608 57.7724,36.5155 58.5324,35.5195 59.0911,34.4781 59.4337,33.4035 59.5511,32.2995 59.4337,31.1888 59.0911,30.1141 58.5324,29.0741 57.7724,28.0781 56.8217,27.1328 55.6911,26.2381 54.3911,25.4021 52.9311,24.6328 51.3271,23.9368 49.5884,23.3115 47.7284,22.7688 45.7511,22.3115 43.6751,21.9475 41.5097,21.6821 39.2644,21.5181 36.9577,21.4595 34.6471,21.5181 32.4044,21.6821 30.2391,21.9475 28.1617,22.3115 26.1871,22.7688 24.3244,23.3115 22.5857,23.9368 20.9804,24.6328 19.5231,25.4021 18.2217,26.2381 17.0924,27.1328 16.1377,28.0781 15.3804,29.0741 14.8217,30.1141 14.4791,31.1888 14.3644,32.2995 14.4791,33.4035 14.8217,34.4781 15.3804,35.5195 16.1377,36.5155 17.0924,37.4608 18.2217,38.3528 19.5231,39.1901 20.9804,39.9595 22.5857,40.6568 24.3244,41.2808 26.1871,41.8261 28.1617,42.2808 30.2391,42.6448 32.4044,42.9101 34.6471,43.0755 36.9577,43.1328z" fill="#2364AE"/></g><path d="M59.4693,27.9L59.124,28.952 58.568,29.9667 57.8027,30.94 56.852,31.8653 55.7187,32.7373 54.416,33.5507 52.9533,34.304 51.3453,34.9867 49.6013,35.5947 47.7347,36.1253 45.756,36.5693 43.6773,36.9267 41.5067,37.1907 39.2587,37.3493 36.9453,37.404 34.6307,37.3493 32.3827,37.1907 30.212,36.9267 28.132,36.5693 26.1533,36.1253 24.2867,35.5947 22.544,34.9867 20.9347,34.304 19.4747,33.5507 18.172,32.7373 17.0373,31.8653 16.084,30.94 15.3227,29.9667 14.7653,28.952 14.4213,27.9 14.304,26.8187 14.304,31.9293 14.4213,33.012 14.7653,34.0627 15.3227,35.076 16.084,36.0493 17.0373,36.9747 18.172,37.8467 19.4747,38.6627 20.9347,39.416 22.544,40.096 24.2867,40.7067 26.1533,41.2333 28.132,41.6813 30.212,42.04 32.3827,42.2987 34.6307,42.4613 36.9453,42.512 39.2587,42.4613 41.5067,42.2987 43.6773,42.04 45.756,41.6813 47.7347,41.2333 49.6013,40.7067 51.3453,40.096 52.9533,39.416 54.416,38.6627 55.7187,37.8467 56.852,36.9747 57.8027,36.0493 58.568,35.076 59.124,34.0627 59.4693,33.012 59.5853,31.9293 59.5853,26.8187 59.4693,27.9z" fill="url(#def7)"/><path d="M34.6307,16.2907L32.3827,16.4507 30.212,16.7107 28.132,17.0667 26.1533,17.512 24.2867,18.044 22.544,18.6507 20.9347,19.336 19.4747,20.0853 18.172,20.9013 17.0373,21.7747 16.084,22.6987 15.3227,23.672 14.7653,24.688 14.4213,25.736 14.304,26.8187 14.4213,27.9 14.7653,28.952 15.3227,29.9667 16.084,30.94 17.0373,31.8653 18.172,32.7373 19.4747,33.5507 20.9347,34.304 22.544,34.9867 24.2867,35.5947 26.1533,36.1253 28.132,36.5693 30.212,36.9267 32.3827,37.1907 34.6307,37.3493 36.9453,37.404 39.2587,37.3493 41.5067,37.1907 43.6773,36.9267 45.756,36.5693 47.7347,36.1253 49.6013,35.5947 51.3453,34.9867 52.9533,34.304 54.416,33.5507 55.7187,32.7373 56.852,31.8653 57.8027,30.94 58.568,29.9667 59.124,28.952 59.4693,27.9 59.5853,26.8187 59.4693,25.736 59.124,24.688 58.568,23.672 57.8027,22.6987 56.852,21.7747 55.7187,20.9013 54.416,20.0853 52.9533,19.336 51.3453,18.6507 49.6013,18.044 47.7347,17.512 45.756,17.0667 43.6773,16.7107 41.5067,16.4507 39.2587,16.2907 36.9453,16.236 34.6307,16.2907z" fill="url(#def8)"/><g><path d="M134.931,43.1328L137.238,43.0755 139.484,42.9101 141.65,42.6448 143.727,42.2808 145.702,41.8261 147.564,41.2808 149.304,40.6568 150.906,39.9595 152.364,39.1901 153.664,38.3528 154.798,37.4608 155.75,36.5155 156.511,35.5195 157.067,34.4781 157.41,33.4035 157.524,32.2995 157.41,31.1888 157.067,30.1141 156.511,29.0741 155.75,28.0781 154.798,27.1328 153.664,26.2381 152.364,25.4021 150.906,24.6328 149.304,23.9368 147.564,23.3115 145.702,22.7688 143.727,22.3115 141.65,21.9475 139.484,21.6821 137.238,21.5181 134.931,21.4595 132.622,21.5181 130.379,21.6821 128.212,21.9475 126.136,22.3115 124.162,22.7688 122.299,23.3115 120.558,23.9368 118.955,24.6328 117.496,25.4021 116.196,26.2381 115.067,27.1328 114.112,28.0781 113.355,29.0741 112.795,30.1141 112.454,31.1888 112.339,32.2995 112.454,33.4035 112.795,34.4781 113.355,35.5195 114.112,36.5155 115.067,37.4608 116.196,38.3528 117.496,39.1901 118.955,39.9595 120.558,40.6568 122.299,41.2808 124.162,41.8261 126.136,42.2808 128.212,42.6448 130.379,42.9101 132.622,43.0755 134.931,43.1328z" fill="#2364AE"/></g><path d="M157.441,27.9L157.099,28.952 156.543,29.9667 155.781,30.94 154.827,31.8653 153.693,32.7373 152.392,33.5507 150.929,34.304 149.317,34.9867 147.579,35.5947 145.709,36.1253 143.731,36.5693 141.649,36.9267 139.481,37.1907 137.233,37.3493 134.921,37.404 132.605,37.3493 130.357,37.1907 128.187,36.9267 126.108,36.5693 124.129,36.1253 122.263,35.5947 120.52,34.9867 118.915,34.304 117.447,33.5507 116.145,32.7373 115.012,31.8653 114.06,30.94 113.297,29.9667 112.736,28.952 112.395,27.9 112.279,26.8187 112.279,31.9293 112.395,33.012 112.736,34.0627 113.297,35.076 114.06,36.0493 115.012,36.9747 116.145,37.8467 117.447,38.6627 118.915,39.416 120.52,40.096 122.263,40.7067 124.129,41.2333 126.108,41.6813 128.187,42.04 130.357,42.2987 132.605,42.4613 134.921,42.512 137.233,42.4613 139.481,42.2987 141.649,42.04 143.731,41.6813 145.709,41.2333 147.579,40.7067 149.317,40.096 150.929,39.416 152.392,38.6627 153.693,37.8467 154.827,36.9747 155.781,36.0493 156.543,35.076 157.099,34.0627 157.441,33.012 157.557,31.9293 157.557,26.8187 157.441,27.9z" fill="url(#def9)"/><path d="M132.605,16.2907L130.357,16.4507 128.187,16.7107 126.108,17.0667 124.129,17.512 122.263,18.044 120.52,18.6507 118.915,19.336 117.447,20.0853 116.145,20.9013 115.012,21.7747 114.06,22.6987 113.297,23.672 112.736,24.688 112.395,25.736 112.279,26.8187 112.395,27.9 112.736,28.952 113.297,29.9667 114.06,30.94 115.012,31.8653 116.145,32.7373 117.447,33.5507 118.915,34.304 120.52,34.9867 122.263,35.5947 124.129,36.1253 126.108,36.5693 128.187,36.9267 130.357,37.1907 132.605,37.3493 134.921,37.404 137.233,37.3493 139.481,37.1907 141.649,36.9267 143.731,36.5693 145.709,36.1253 147.579,35.5947 149.317,34.9867 150.929,34.304 152.392,33.5507 153.693,32.7373 154.827,31.8653 155.781,30.94 156.543,29.9667 157.099,28.952 157.441,27.9 157.557,26.8187 157.441,25.736 157.099,24.688 156.543,23.672 155.781,22.6987 154.827,21.7747 153.693,20.9013 152.392,20.0853 150.929,19.336 149.317,18.6507 147.579,18.044 145.709,17.512 143.731,17.0667 141.649,16.7107 139.481,16.4507 137.233,16.2907 134.921,16.236 132.605,16.2907z" fill="url(#def10)"/><path d="M155.5,25.7911C155.5,30.6951 146.097,34.6697 134.5,34.6697 122.903,34.6697 113.5,30.6951 113.5,25.7911 113.5,20.8871 122.903,16.9124 134.5,16.9124 146.097,16.9124 155.5,20.8871 155.5,25.7911z" fill="#DEFFFF" style="fill-opacity:0.372549019607843"/><path d="M111.687,43.5215C111.687,49.3815 100.451,54.1308 86.5941,54.1308 72.7355,54.1308 61.4995,49.3815 61.4995,43.5215 61.4995,37.6615 72.7355,32.9121 86.5941,32.9121 100.451,32.9121 111.687,37.6615 111.687,43.5215z" fill="#DEFFFF" style="fill-opacity:0.372549019607843"/><path d="M58.1667,25.7911C58.1667,30.6951 48.764,34.6697 37.1667,34.6697 25.5693,34.6697 16.1667,30.6951 16.1667,25.7911 16.1667,20.8871 25.5693,16.9124 37.1667,16.9124 48.764,16.9124 58.1667,20.8871 58.1667,25.7911z" fill="#DEFFFF" style="fill-opacity:0.372549019607843"/><path d="M103.46,9.21881C103.46,13.8068 94.6623,17.5241 83.8129,17.5241 72.9623,17.5241 64.1663,13.8068 64.1663,9.21881 64.1663,4.6308 72.9623,0.913467 83.8129,0.913467 94.6623,0.913467 103.46,4.6308 103.46,9.21881z" fill="#DEFFFF" style="fill-opacity:0.372549019607843"/><path d="M85.2516,76.4591L85.2516,170.148C85.2516,170.148,91.0062,94.8725,94.0089,83.5511L94.0089,83.5511C97.0129,72.2298,170.526,31.0738,170.526,31.0738L85.2516,76.4591z" fill="#FFFFFF" style="fill-opacity:0.203921568627451"/><path d="M0.253561,30.0738C0.253561,30.0738,73.7629,71.2298,76.7682,82.5511L76.7682,82.5511C79.7722,93.8725,85.5242,169.148,85.5242,169.148L85.5242,75.4591 0.253561,30.0738z" fill="#4CAED5" style="fill-opacity:0.603921568627451"/></g></svg>