<?xml version="1.0" encoding="UTF-8" standalone="no"?>
<!-- Generator: Adobe Illustrator 19.1.0, SVG Export Plug-In . SVG Version: 6.00 Build 0)  -->

<svg
   xmlns:dc="http://purl.org/dc/elements/1.1/"
   xmlns:cc="http://creativecommons.org/ns#"
   xmlns:rdf="http://www.w3.org/1999/02/22-rdf-syntax-ns#"
   xmlns:svg="http://www.w3.org/2000/svg"
   xmlns="http://www.w3.org/2000/svg"
   xmlns:sodipodi="http://sodipodi.sourceforge.net/DTD/sodipodi-0.dtd"
   xmlns:inkscape="http://www.inkscape.org/namespaces/inkscape"
   version="1.1"
   id="svg2"
   inkscape:version="0.91 r13725"
   inkscape:output_extension="org.inkscape.output.svg.inkscape"
   sodipodi:docname="and.svg"
   sodipodi:version="0.32"
   x="0px"
   y="0px"
   viewBox="-252 400.9 90 40"
   style="enable-background:new -252 400.9 90 40;"
   xml:space="preserve"><metadata
     id="metadata4304"><rdf:RDF><cc:Work
         rdf:about=""><dc:format>image/svg+xml</dc:format><dc:type
           rdf:resource="http://purl.org/dc/dcmitype/StillImage" /><dc:title></dc:title></cc:Work></rdf:RDF></metadata><defs
     id="defs4302" /><sodipodi:namedview
     pagecolor="#ffffff"
     bordercolor="#666666"
     borderopacity="1"
     objecttolerance="10"
     gridtolerance="10"
     guidetolerance="10"
     inkscape:pageopacity="0"
     inkscape:pageshadow="2"
     inkscape:window-width="1920"
     inkscape:window-height="1016"
     id="namedview4300"
     showgrid="false"
     inkscape:zoom="5.5979287"
     inkscape:cx="-22.727131"
     inkscape:cy="-0.70115877"
     inkscape:window-x="0"
     inkscape:window-y="27"
     inkscape:window-maximized="1"
     inkscape:current-layer="svg2" /><g
     id="path3061"><rect
       x="-252"
       y="409.9"
       width="26"
       height="2"
       id="rect4286" /></g><g
     id="path3944"><rect
       x="-252"
       y="429.9"
       width="27"
       height="2"
       id="rect4289" /></g><g
     id="path2884"><path
       sodipodi:nodetypes="ccccccsccccsssssccc"
       inkscape:connector-curvature="0"
       d="M-227,400.9v1.4v37.1v1.4h1.4h19   c11.3,0,20-9,20-20c0-11-8.7-20-20-20c0,0,0,0-19,0H-227z M-224.1,403.7c8,0,13.1,0,15.2,0c1.2,0,1.8,0,2.1,0c0.1,0,0.2,0,0.3,0   c0,0,0,0,0,0c9.8,0,16.7,7.6,16.7,17.1c0,9.5-7.4,17.1-17.1,17.1h-17.1C-224.1,438-224.1,403.7-224.1,403.7z"
       id="path4292" /></g><rect
     x="-187.91052"
     y="419.89999"
     width="25.910526"
     height="2"
     id="rect4294" /></svg>