<?xml version="1.0" ?><svg data-name="Layer 1" id="Layer_1" viewBox="0 0 64 64" xmlns="http://www.w3.org/2000/svg"><title/><desc/><path d="M40.23,38.79h0L22.15,20.71l-.91,1.92L34.3,35.69a4,4,0,0,1-1.12,6.44l-9.6,4.55a8.06,8.06,0,0,1-11.25-5.23L3.06,61,43.37,41.93Z" style="fill:#cff09e"/><polygon points="41.23 39.79 29.92 28.48 19.76 25.76 16.28 33.11 41.23 39.79" style="fill:#79bd9a"/><polygon points="34.31 46.22 12.8 40.46 9.32 47.8 23.14 51.51 34.31 46.22" style="fill:#79bd9a"/><polygon points="3.06 61.02 11.97 56.8 5.84 55.16 3.06 61.02" style="fill:#79bd9a"/><path d="M21.36,17.27l0,0Z" style="fill:#cff09e"/><path d="M46,43.15a2,2,0,0,0-.51-1.92L22.85,18.6a2,2,0,0,0-1.92-.51,2.1,2.1,0,0,1,.41-.8A2,2,0,0,0,21.45,20L44.07,42.63a2,2,0,0,0,2.72.11A2.1,2.1,0,0,1,46,43.15Z" style="fill:#cff09e"/><path d="M46.84,42.69l0,0Z" style="fill:#cff09e"/><polygon points="59.61 4.47 57.93 9.43 61.06 13.63 55.83 13.56 52.8 17.83 51.25 12.83 46.25 11.28 50.52 8.26 50.45 3.02 54.65 6.15 59.61 4.47" style="fill:#cff09e"/><path d="M25,16.47a3,3,0,0,0-4.24,4.24l.21.21-2.72,5.74-2.85,6h0l-10.43,22h0L2.16,60.59A1,1,0,0,0,3.06,62a.94.94,0,0,0,.43-.1L28.65,50l6.08-2.88h0l8.42-4,.21.21a3,3,0,1,0,4.24-4.24ZM37.89,37.86,17.7,32.45l2.61-5.51,9.09,2.43,3.76,3.76ZM21.18,25.1l1.27-2.68,4.12,4.13Zm3.9,24.38-2,1-12.3-3.3,2.61-5.51,18.07,4.84Zm-13.2,6.26L7.26,54.5,9.87,49l10.38,2.78ZM5.16,58.92l1.23-2.58,2.69.72ZM34.21,45.16l-20-5.36,2.61-5.51,23.88,6.4.95.94Zm12-3.23a1,1,0,0,1-1.42,0l-.71-.71L33.47,30.61,22.15,19.3a1,1,0,0,1,0-1.42,1,1,0,0,1,1.42,0L46.2,40.51a1,1,0,0,1,0,1.42Z" style="fill:#3b8686"/><path d="M46,12.23l4.5,1.4,1.4,4.5a1,1,0,0,0,.8.69h.15a1,1,0,0,0,.82-.42l2.72-3.84,4.71,0a.93.93,0,0,0,.9-.54A1,1,0,0,0,61.86,13L59.05,9.25l1.51-4.46a1,1,0,0,0-1.27-1.27L54.83,5,51.05,2.22A1,1,0,0,0,49.46,3l.06,4.71-3.85,2.72A1,1,0,0,0,46,12.23ZM51.1,9.07a1,1,0,0,0,.42-.83l0-3.21L54.05,7A1,1,0,0,0,55,7.1l3-1-1,3a1,1,0,0,0,.15.92l1.92,2.57-3.21,0A1,1,0,0,0,55,13L53.15,15.6l-.95-3.06a1,1,0,0,0-.66-.66l-3.06-1Z" style="fill:#3b8686"/><path d="M30.56,18.54a1,1,0,0,0,.5,1.87,1,1,0,0,0,.5-.13A13,13,0,0,0,36.32,2.52a1,1,0,1,0-1.73,1A11,11,0,0,1,30.56,18.54Z" style="fill:#3b8686"/><path d="M61.93,29.13a1,1,0,0,0-.37-1.37A13,13,0,0,0,43.8,32.52a1,1,0,0,0,1.74,1,11,11,0,0,1,15-4A1,1,0,0,0,61.93,29.13Z" style="fill:#3b8686"/><path d="M38.35,25.73a1,1,0,0,0,.71.29,1,1,0,0,0,.71-.29l7-7a1,1,0,0,0-1.42-1.42l-7,7A1,1,0,0,0,38.35,25.73Z" style="fill:#3b8686"/><path d="M27.69,15a1,1,0,0,0,.37.07,1,1,0,0,0,.93-.63l2-5a1,1,0,1,0-1.86-.74l-2,5A1,1,0,0,0,27.69,15Z" style="fill:#3b8686"/><path d="M53.69,34.09l-5,2A1,1,0,0,0,49.06,38a.94.94,0,0,0,.37-.07l5-2a1,1,0,0,0-.74-1.86Z" style="fill:#3b8686"/><path d="M58.06,24a1,1,0,0,0,1-1V22h1a1,1,0,0,0,0-2h-1V19a1,1,0,1,0-2,0v1h-1a1,1,0,0,0,0,2h1v1A1,1,0,0,0,58.06,24Z" style="fill:#3b8686"/><path d="M40.53,7.73a1,1,0,0,0,.7.29,1,1,0,0,0,.71-.29L42.65,7l.7.71a1,1,0,0,0,.71.29,1,1,0,0,0,.71-.29,1,1,0,0,0,0-1.42l-.71-.71.71-.7a1,1,0,0,0-1.42-1.42l-.7.71-.71-.71a1,1,0,0,0-1.41,0,1,1,0,0,0,0,1.42l.7.7-.7.71A1,1,0,0,0,40.53,7.73Z" style="fill:#3b8686"/><path d="M46.06,24a1,1,0,1,0,2,.11,1,1,0,0,0-2-.11Z" style="fill:#3b8686"/><circle cx="41.06" cy="15.02" r="1" style="fill:#3b8686"/><circle cx="30.06" cy="4.02" r="1" style="fill:#3b8686"/><circle cx="61.06" cy="34.02" r="1" style="fill:#3b8686"/><circle cx="37.06" cy="21.02" r="1" style="fill:#3b8686"/></svg>