<?xml version="1.0" encoding="utf-8"?>
<!-- Generator: Adobe Illustrator 19.1.0, SVG Export Plug-In . SVG Version: 6.00 Build 0)  -->
<svg version="1.1" id="Capa_1" xmlns="http://www.w3.org/2000/svg" xmlns:xlink="http://www.w3.org/1999/xlink" x="0px" y="0px"
	 viewBox="0 0 85 85" style="enable-background:new 0 0 85 85;" xml:space="preserve">
<style type="text/css">
	.st0{font-family:'FranklinGothic-Medium';}
	.st1{font-size:10px;}
</style>
<text transform="matrix(1 0 0 1 23.2722 16.6627)" class="st0 st1">DFF_E_R</text>
<path d="M71.3,7.8v69.5H13.8V7.8H71.3 M73.3,5.8H11.8v73.5h61.5V5.8L73.3,5.8z"/>
<g>
	<path d="M11.8,26.6v1.2H0l0-1.2H11.8z"/>
</g>
<g>
	<path d="M85,26.6v1.2H73.3v-1.2H85z"/>
</g>
<g>
	<path d="M85,70.4v1.2H73.3v-1.2H85z"/>
</g>
<g>
	<path d="M11.8,69.5v1.2H0l0-1.2H11.8z"/>
</g>
<g>
	<path d="M11.8,40.9v1.2H0l0-1.2H11.8z"/>
</g>
<g>
	<path d="M4.7,55.2v1.2H0l0-1.2H4.7z"/>
</g>
<g>
	<path d="M67.8,31v1c-0.4,0-0.6,0-0.7,0c-1,0-1.5-0.4-1.5-1.3c-0.2,0-0.4,0-0.4,0c-0.9,0-1.6-0.3-2.1-1c-0.5-0.7-0.7-1.5-0.7-2.5
		c0-1,0.2-1.8,0.7-2.5c0.5-0.7,1.2-1,2.1-1c0.7,0,1.2,0.2,1.6,0.5c0.4,0.3,0.7,0.7,0.9,1.2s0.3,1.1,0.3,1.8c0,1.4-0.5,2.5-1.4,3.1
		c-0.1,0.1-0.2,0.2-0.2,0.3c0,0.1,0,0.2,0.1,0.3C66.7,31,66.8,31,67,31c0.1,0,0.3,0,0.5,0C67.6,31,67.7,31,67.8,31z M65.2,29.7
		c1,0,1.6-0.8,1.6-2.5c0-0.9-0.1-1.5-0.4-1.9s-0.6-0.6-1.1-0.6c-1,0-1.5,0.8-1.5,2.5C63.7,28.9,64.2,29.7,65.2,29.7z"/>
</g>
<g>
	<path d="M57.3,71l-0.6-0.4c0.2-0.5,0.4-0.9,0.7-1c0.2-0.2,0.5-0.3,0.8-0.3c0.2,0,0.6,0.1,1.1,0.3c0.4,0.2,0.7,0.3,0.9,0.3
		c0.3,0,0.6-0.2,0.8-0.6l0.6,0.4c-0.4,0.8-0.9,1.3-1.6,1.3c-0.2,0-0.6-0.1-1.2-0.4c-0.3-0.1-0.6-0.2-0.7-0.2
		C57.7,70.4,57.5,70.6,57.3,71z"/>
	<path d="M67.8,73.8v1c-0.4,0-0.6,0-0.7,0c-1,0-1.5-0.4-1.5-1.3c-0.2,0-0.4,0-0.4,0c-0.9,0-1.6-0.3-2.1-1c-0.5-0.7-0.7-1.5-0.7-2.5
		c0-1,0.2-1.8,0.7-2.5c0.5-0.7,1.2-1,2.1-1c0.7,0,1.2,0.2,1.6,0.5c0.4,0.3,0.7,0.7,0.9,1.2s0.3,1.1,0.3,1.8c0,1.4-0.5,2.5-1.4,3.1
		c-0.2,0.1-0.2,0.2-0.2,0.3c0,0.1,0,0.2,0.1,0.3c0.1,0.1,0.2,0.1,0.4,0.1c0.1,0,0.3,0,0.5,0C67.6,73.8,67.7,73.8,67.8,73.8z
		 M65.2,72.5c1,0,1.6-0.8,1.6-2.5c0-0.9-0.1-1.5-0.4-1.9s-0.6-0.6-1.1-0.6c-1,0-1.5,0.8-1.5,2.5C63.7,71.7,64.2,72.5,65.2,72.5z"/>
</g>
<g>
	<path d="M21.2,71.1l1.1,0.1c-0.1,0.7-0.3,1.2-0.8,1.6c-0.4,0.4-1,0.6-1.8,0.6c-0.6,0-1.1-0.2-1.5-0.5c-0.4-0.3-0.7-0.7-0.9-1.2
		c-0.2-0.5-0.3-1.1-0.3-1.7c0-1,0.2-1.8,0.7-2.5c0.5-0.6,1.1-1,2-1c0.7,0,1.2,0.2,1.7,0.6c0.4,0.4,0.7,1,0.8,1.7l-1.1,0.1
		c-0.2-1-0.7-1.5-1.4-1.5c-0.4,0-0.8,0.2-1,0.6c-0.2,0.4-0.4,1-0.4,1.8c0,0.8,0.1,1.4,0.4,1.8c0.3,0.4,0.6,0.6,1.1,0.6
		c0.4,0,0.7-0.1,0.9-0.4C21,71.8,21.2,71.5,21.2,71.1z"/>
	<path d="M27.4,73.4h-4.1v-6.7h1.3v5.6h2.8V73.4z"/>
	<path d="M33.5,73.4h-1.3L30.7,70l-1.3,1.7v1.7h-1.2v-6.7h1.2v3.5c0.2-0.2,0.3-0.4,0.3-0.5l2.2-3h1.2l-1.6,2.2L33.5,73.4z"/>
</g>
<g>
	<path d="M22.7,59.1h-1.3l-1-2.7h-1.7v2.7h-1.2v-6.7h2.9c0.8,0,1.4,0.2,1.8,0.5c0.4,0.4,0.6,0.8,0.6,1.4c0,0.9-0.4,1.4-1.2,1.8
		L22.7,59.1z M18.7,55.4h1.5c0.4,0,0.8-0.1,1-0.3c0.2-0.2,0.3-0.4,0.3-0.8c0-0.3-0.1-0.5-0.3-0.7s-0.5-0.3-0.9-0.3h-1.6V55.4z"/>
	<path d="M23.2,57.5l1.2-0.2c0.1,0.7,0.7,1,1.6,1c0.4,0,0.8-0.1,1-0.3c0.2-0.2,0.3-0.4,0.3-0.6c0-0.2-0.1-0.4-0.2-0.5
		c-0.1-0.2-0.3-0.3-0.7-0.4l-1.3-0.3c-0.4-0.1-0.8-0.2-1-0.4c-0.2-0.1-0.4-0.3-0.5-0.6s-0.2-0.5-0.2-0.8c0-0.6,0.2-1.1,0.7-1.4
		c0.4-0.4,1-0.5,1.7-0.5c0.6,0,1.1,0.1,1.5,0.4c0.5,0.3,0.7,0.6,0.9,1.1l-1.1,0.3c-0.2-0.5-0.6-0.8-1.2-0.8c-0.4,0-0.7,0.1-0.9,0.2
		s-0.3,0.4-0.3,0.6c0,0.4,0.3,0.6,0.9,0.8l1.1,0.3c0.7,0.2,1.1,0.4,1.4,0.8s0.4,0.7,0.4,1.1c0,0.7-0.2,1.2-0.7,1.5s-1.1,0.6-1.9,0.6
		c-0.7,0-1.2-0.1-1.7-0.4C23.7,58.5,23.4,58.1,23.2,57.5z"/>
	<path d="M31.9,59.1h-1.3v-5.6h-1.8v-1h4.8v1h-1.8V59.1z"/>
</g>
<g>
	<path d="M21.8,44.8h-4.3v-6.7h4.3v1h-3.1v1.8h2.5v1h-2.5v1.9h3.1V44.8z"/>
	<path d="M27.9,44.8h-1.2l-2.5-4.3c0-0.1-0.1-0.2-0.2-0.3c0-0.1-0.1-0.2-0.2-0.3v4.9h-1v-6.7h1.3l2.3,3.9c0,0,0.2,0.3,0.4,0.7v-4.6
		h0.9V44.8z"/>
</g>
<g>
	<path d="M19.8,30.5h-1.3v-5.6h-1.8v-1h4.8v1h-1.8V30.5z"/>
</g>
<path d="M8.2,53.3c1.4,0,2.5,1.1,2.5,2.5s-1.1,2.5-2.5,2.5s-2.5-1.1-2.5-2.5S6.8,53.3,8.2,53.3 M8.2,52.3c-1.9,0-3.5,1.6-3.5,3.5
	s1.6,3.5,3.5,3.5s3.5-1.6,3.5-3.5S10.2,52.3,8.2,52.3L8.2,52.3z"/>
<polygon points="12.9,66.2 12.9,67.2 15.8,70.1 12.9,73 12.9,74 16.8,70.1 "/>
</svg>
