<?xml version="1.0" encoding="UTF-8" standalone="no"?>
<!-- Created with Inkscape (http://www.inkscape.org/) -->

<svg
   xmlns:dc="http://purl.org/dc/elements/1.1/"
   xmlns:cc="http://creativecommons.org/ns#"
   xmlns:rdf="http://www.w3.org/1999/02/22-rdf-syntax-ns#"
   xmlns:svg="http://www.w3.org/2000/svg"
   xmlns="http://www.w3.org/2000/svg"
   xmlns:sodipodi="http://sodipodi.sourceforge.net/DTD/sodipodi-0.dtd"
   xmlns:inkscape="http://www.inkscape.org/namespaces/inkscape"
   width="111.07935mm"
   height="111.07935mm"
   viewBox="0 0 393.58825 393.58825"
   id="svg8825"
   version="1.1"
   inkscape:version="0.91 r13725"
   sodipodi:docname="icestudio-logo.svg"
   inkscape:export-filename="/home/jesus/code/icestudio/app/resources/images/icestudio-logo.png"
   inkscape:export-xdpi="26"
   inkscape:export-ydpi="26">
  <defs
     id="defs8827">
    <filter
       style="color-interpolation-filters:sRGB"
       inkscape:label="Drop Shadow"
       id="filter4188">
      <feFlood
         flood-opacity="0.498039"
         flood-color="rgb(0,0,0)"
         result="flood"
         id="feFlood4190" />
      <feComposite
         in="flood"
         in2="SourceGraphic"
         operator="in"
         result="composite1"
         id="feComposite4192" />
      <feGaussianBlur
         in="composite1"
         stdDeviation="3"
         result="blur"
         id="feGaussianBlur4194" />
      <feOffset
         dx="6"
         dy="6"
         result="offset"
         id="feOffset4196" />
      <feComposite
         in="SourceGraphic"
         in2="offset"
         operator="over"
         result="composite2"
         id="feComposite4198" />
    </filter>
  </defs>
  <sodipodi:namedview
     id="base"
     pagecolor="#ffffff"
     bordercolor="#666666"
     borderopacity="1.0"
     inkscape:pageopacity="0.0"
     inkscape:pageshadow="2"
     inkscape:zoom="1.4"
     inkscape:cx="75.493896"
     inkscape:cy="166.3438"
     inkscape:document-units="px"
     inkscape:current-layer="g8802"
     showgrid="false"
     fit-margin-top="0"
     fit-margin-left="0"
     fit-margin-right="0"
     fit-margin-bottom="0"
     inkscape:window-width="1920"
     inkscape:window-height="1016"
     inkscape:window-x="0"
     inkscape:window-y="27"
     inkscape:window-maximized="1" />
  <metadata
     id="metadata8830">
    <rdf:RDF>
      <cc:Work
         rdf:about="">
        <dc:format>image/svg+xml</dc:format>
        <dc:type
           rdf:resource="http://purl.org/dc/dcmitype/StillImage" />
        <dc:title />
      </cc:Work>
    </rdf:RDF>
  </metadata>
  <g
     inkscape:label="Layer 1"
     inkscape:groupmode="layer"
     id="layer1"
     transform="translate(-14.634449,-281.28232)">
    <g
       transform="translate(162.81501,-5070.6135)"
       id="g8802">
      <circle
         style="opacity:1;fill:#8fd9f4;fill-opacity:1;stroke:#275d75;stroke-width:8;stroke-linecap:round;stroke-linejoin:round;stroke-miterlimit:4;stroke-dasharray:none;stroke-dashoffset:0;stroke-opacity:1;filter:url(#filter4188)"
         id="path4317-7-3-6-8-5-5-9-1"
         r="163.9951"
         cy="5548.6899"
         cx="48.613564" />
      <g
         transform="matrix(1.0004123,0,0,1.0004123,51.046375,-3.697741)"
         id="g8707">
        <path
           style="fill:#275d75;fill-opacity:1"
           d="m -10.30017,5571.7469 -8.54733,5.1335 c -4.70116,2.8234 -12.39405,7.3405 -17.09527,10.0376 -8.21947,4.7157 -8.54643,5.5399 -8.51113,21.4537 l 0.0367,16.5497 -7.90039,0.018 c -7.61698,0.017 -7.90133,-0.4113 -7.92688,-11.9258 -0.0247,-11.1272 -0.38606,-11.7498 -5.28713,-9.1127 -3.90275,2.0997 -5.25466,5.5256 -5.23747,13.2716 0.021,9.4821 -0.60423,10.4427 -6.80721,10.4565 -4.58789,0.01 -7.28077,-1.6925 -8.20244,-5.186 -1.08612,-4.1153 -2.37394,-4.662 -6.16981,-2.6198 -6.47839,3.4857 -18.30933,3.3031 -18.31728,-0.2819 -0.003,-1.5914 3.65806,-6.3322 8.13694,-10.535 6.50018,-6.0991 7.32517,-7.953 4.08722,-9.1873 -3.27608,-1.2488 -3.50145,-2.7716 -1.17167,-7.9148 3.44266,-7.6005 4.51267,-7.729 14.91308,-1.7907 7.30287,4.1697 8.40926,4.2099 12.16211,0.4402 3.75304,-3.7699 3.28028,-4.6014 -5.1968,-9.1424 -10.25281,-5.4922 -10.80824,-6.765 -6.19381,-14.1903 3.03149,-4.8783 3.65053,-4.7734 17.79095,3.019 l 14.65015,8.0733 15.11491,-8.5747 c 8.31346,-4.7161 15.11308,-9.5335 15.11049,-10.7053 -0.003,-1.172 -6.82736,-5.9688 -15.1661,-10.6599 l -15.16136,-8.5288 -14.6849,8.0337 c -14.03321,7.6774 -14.8215,7.8159 -17.76893,3.1196 -4.56113,-7.2674 -3.98633,-8.5716 6.20985,-14.0918 8.31653,-4.5024 8.8784,-5.4596 5.2987,-9.0234 -3.57972,-3.5639 -5.02109,-3.4992 -13.58919,0.61 -5.2717,2.5283 -9.87099,4.2505 -10.22053,3.827 -0.34965,-0.4234 -1.96526,-3.3147 -3.59007,-6.4252 -2.34999,-4.4983 -2.15694,-5.9638 0.94392,-7.1617 5.00142,-1.9318 5.06341,-6.9405 0.0858,-6.9294 -3.66449,0.01 -12.02086,-9.5267 -12.03018,-13.7269 -0.006,-2.9021 12.58263,-2.5704 18.31772,0.4824 3.80489,2.0258 5.09027,1.4732 6.15813,-2.6471 0.90645,-3.4974 3.59145,-5.2119 8.17934,-5.2221 6.20297,-0.013 6.83251,0.9439 6.85355,10.426 0.0172,7.746 1.38427,11.1658 5.2963,13.2482 4.91272,2.6152 5.27133,1.9911 5.24664,-9.1361 -0.0256,-11.5145 0.2569,-11.9437 7.87389,-11.9606 l 7.90038,-0.018 0.037,16.6945 c 0.0326,14.6997 0.7458,17.0392 5.96865,19.5771 3.26233,1.585 10.97508,5.973 17.13917,9.751 l 11.20748,6.869 -0.0441,-19.8778 -0.0441,-19.8777 -14.5023,-8.1421 c -8.84073,-4.9636 -13.83063,-9.3305 -12.78195,-11.1864 5.20557,-9.2135 6.53863,-9.5485 16.95568,-4.2632 l 10.28781,5.2197 -0.0342,-5.9788 c -0.0295,-3.8753 -2.80696,-7.5507 -7.9231,-10.4471 -7.18974,-4.0699 -7.62215,-5.0666 -4.85231,-11.1814 3.41,-7.5286 5.00159,-8.1216 9.57599,-3.5674 2.46326,2.4523 3.16377,1.6004 3.15171,-3.8334 -0.0169,-7.5322 4.93802,-20.4125 7.85482,-20.419 2.91709,-0.01 7.92904,12.8516 7.94574,20.3841 0.0121,5.4337 0.71635,6.2824 3.16859,3.8191 4.53839,-4.5585 6.14836,-3.9884 9.5215,3.3713 2.71675,5.9278 2.26158,6.9298 -4.82076,10.6122 -5.50337,2.8614 -7.81648,6.013 -7.80623,10.6358 l 0.0146,6.5696 10.26444,-5.2653 c 10.3936,-5.3315 11.72813,-5.0025 16.97454,4.1879 1.05691,1.8512 -3.91356,6.2402 -12.7322,11.243 l -14.46601,8.2064 0.0434,19.5703 0.0434,19.5703 17.0716,-9.7552 17.0715,-9.7553 -0.0135,-16.4591 -0.0135,-16.459 7.90028,-0.018 c 7.61678,-0.017 7.90134,0.4109 7.92688,11.9254 0.0247,11.1273 0.38588,11.7499 5.28714,9.113 3.92511,-2.1119 5.25475,-5.5257 5.23717,-13.4467 -0.0223,-10.0274 0.37816,-10.5708 7.22029,-9.7988 5.12979,0.5786 7.13153,2.2152 6.85866,5.6077 -0.2832,3.5198 0.7662,4.2841 3.95659,2.8817 2.38798,-1.0498 8.19197,-2.4589 12.89789,-3.1313 10.98815,-1.57 11.1319,2.7373 0.42646,12.7821 -6.50018,6.0993 -7.32487,7.9531 -4.08692,9.1875 3.27587,1.2487 3.50125,2.7714 1.17167,7.9149 -3.44265,7.6004 -4.51267,7.7289 -14.91308,1.7905 -7.30287,-4.1698 -8.40925,-4.2098 -12.1623,-0.4401 -3.75314,3.7698 -3.2804,4.6013 5.19689,9.1424 10.22068,5.4749 10.80107,6.7764 6.27223,14.064 -2.92636,4.7095 -3.71546,4.5744 -17.7827,-3.0407 l -14.72022,-7.9684 -15.12335,8.5961 c -8.31653,4.728 -15.11994,9.5551 -15.11734,10.7271 0.003,1.1718 6.82353,5.9591 15.15783,10.638 l 15.15282,8.5077 14.61418,-8.1383 c 14.10581,-7.8551 14.72427,-7.9628 17.77747,-3.0981 4.64734,7.405 4.09757,8.6802 -6.13076,14.2178 -8.45706,4.5786 -8.92603,5.4122 -5.15619,9.1654 3.76954,3.753 4.87574,3.7079 12.16004,-0.4942 10.37394,-5.9844 11.44442,-5.8606 14.92076,1.7245 2.3527,5.1329 2.13398,6.6565 -1.13643,7.9199 -3.23244,1.2487 -2.39953,3.099 4.12785,9.1692 4.49759,4.1827 8.18018,8.9072 8.18372,10.4986 0.008,3.5855 -11.82216,3.8205 -18.31595,0.3637 -3.80489,-2.0254 -5.09028,-1.4729 -6.15814,2.6471 -0.90614,3.4975 -3.59145,5.2122 -8.17933,5.2223 -6.20287,0.013 -6.8324,-0.9441 -6.85346,-10.4262 -0.0172,-7.7459 -1.38436,-11.1658 -5.29639,-13.2481 -4.91272,-2.6153 -5.27134,-1.9912 -5.24664,9.1361 0.0255,11.5145 -0.2569,11.9438 -7.87389,11.9607 l -7.90038,0.018 -0.0369,-16.6276 -0.0369,-16.6274 -34.27703,-18.9523 c -9.32085,-6.8171 -10.53688,-3.0455 -15.79697,-0.7803 z"
           id="path5887-6-27-7-0-7-2-2-0"
           inkscape:connector-curvature="0"
           sodipodi:nodetypes="ccsscsscssccssccscsssccssccscsscccssccssssscscccccscsccccscsssscscscscccccccsscssscssscssscsccsccssscscccsccsscssccccc" />
        <path
           style="opacity:1;fill:#275d75;fill-opacity:1;stroke:none;stroke-width:2;stroke-linecap:round;stroke-linejoin:round;stroke-miterlimit:4;stroke-dasharray:none;stroke-dashoffset:0;stroke-opacity:1"
           id="path7728-7-0-0"
           sodipodi:type="arc"
           sodipodi:cx="-2.4318075"
           sodipodi:cy="5558.6899"
           sodipodi:rx="37.5"
           sodipodi:ry="37.5"
           sodipodi:start="2.443461"
           sodipodi:end="0.6981317"
           d="m -31.158475,5582.7945 a 37.5,37.5 0 0 1 2.992607,-51.3811 37.5,37.5 0 0 1 51.468122,0 37.5,37.5 0 0 1 2.992605,51.3811 l -28.7266665,-24.1046 z" />
        <circle
           style="opacity:1;fill:#276279;fill-opacity:1;stroke:none;stroke-width:2;stroke-linecap:round;stroke-linejoin:round;stroke-miterlimit:4;stroke-dasharray:none;stroke-dashoffset:0;stroke-opacity:1"
           id="path7730-4-9-4"
           cx="-2.4318075"
           cy="5558.6899"
           r="20" />
        <circle
           cy="5558.6899"
           cx="-2.4318047"
           id="path7730-9-4-9-5"
           style="opacity:1;fill:#8fd9f4;fill-opacity:1;stroke:none;stroke-width:2;stroke-linecap:round;stroke-linejoin:round;stroke-miterlimit:4;stroke-dasharray:none;stroke-dashoffset:0;stroke-opacity:1"
           r="22.5" />
      </g>
    </g>
  </g>
</svg>
