<?xml version="1.0" encoding="UTF-8" standalone="no"?>
<!-- Generator: Adobe Illustrator 9.0, SVG Export Plug-In  -->

<svg
   xmlns:dc="http://purl.org/dc/elements/1.1/"
   xmlns:cc="http://creativecommons.org/ns#"
   xmlns:rdf="http://www.w3.org/1999/02/22-rdf-syntax-ns#"
   xmlns:svg="http://www.w3.org/2000/svg"
   xmlns="http://www.w3.org/2000/svg"
   xmlns:sodipodi="http://sodipodi.sourceforge.net/DTD/sodipodi-0.dtd"
   xmlns:inkscape="http://www.inkscape.org/namespaces/inkscape"
   width="63.493076pt"
   height="38.389381pt"
   viewBox="0 0 63.493076 38.389381"
   xml:space="preserve"
   id="svg2"
   version="1.1"
   inkscape:version="0.91 r13725"
   sodipodi:docname="input-config.svg"><metadata
     id="metadata18"><rdf:RDF><cc:Work
         rdf:about=""><dc:format>image/svg+xml</dc:format><dc:type
           rdf:resource="http://purl.org/dc/dcmitype/StillImage" /><dc:title></dc:title></cc:Work></rdf:RDF></metadata><defs
     id="defs16" /><sodipodi:namedview
     pagecolor="#ffffff"
     bordercolor="#666666"
     borderopacity="1"
     objecttolerance="10"
     gridtolerance="10"
     guidetolerance="10"
     inkscape:pageopacity="0"
     inkscape:pageshadow="2"
     inkscape:window-width="1920"
     inkscape:window-height="1016"
     id="namedview14"
     showgrid="false"
     inkscape:zoom="7.8666667"
     inkscape:cx="32.482565"
     inkscape:cy="28.478787"
     inkscape:window-x="0"
     inkscape:window-y="27"
     inkscape:window-maximized="1"
     inkscape:current-layer="svg2"
     fit-margin-top="0"
     fit-margin-left="12"
     fit-margin-right="12"
     fit-margin-bottom="0" /><path
     style="clip-rule:nonzero;fill:none;fill-rule:nonzero;stroke:#000000;stroke-width:1.60000002;stroke-miterlimit:4;stroke-dasharray:none;stroke-opacity:1"
     d="m 50.496538,18.094692 -2.4,-8.1000003 -5.6,1.6000003 c -1.1,-1.6000003 -2.7,-3.0000003 -4.4,-4.0000003 l 0.9,-5.5000002 -9.2,-1.19999997 -0.8,5.30000017 c -0.3,0.1 -0.7,0.2 -1,0.3 -1.2,0.3 -2.3,0.9 -3.3,1.5 l -4.3,-3.3000002 -5.700001,6.9000005 4.5,3.5 c -0.4,1.1 -0.6,2.3 -0.6,3.6 l -5.6,1.6 2.4,8.1 5.600001,-1.6 c 1.1,1.6 2.7,3 4.4,4 l -0.9,5.5 9.2,1.2 0.8,-5.3 c 0.3,-0.1 0.7,-0.2 1,-0.3 1.2,-0.3 2.3,-0.9 3.3,-1.5 l 4.3,3.3 5.7,-6.9 -4.5,-3.5 c 0.4,-1.1 0.6,-2.3 0.6,-3.6 l 5.6,-1.6 z m -17.5,5.9 c -2.8,0.8 -5.8,-0.8 -6.7,-3.6 -0.9,-2.8 0.8,-5.8 3.6,-6.7 2.8,-0.8 5.8,0.8 6.7,3.6 0.8,2.8 -0.8,5.8 -3.6,6.7 z"
     id="path9"
     inkscape:connector-curvature="0" /></svg>