<?xml version="1.0" encoding="UTF-8" standalone="no"?>
<!-- Generator: Adobe Illustrator 9.0, SVG Export Plug-In  -->

<svg
   xmlns:dc="http://purl.org/dc/elements/1.1/"
   xmlns:cc="http://creativecommons.org/ns#"
   xmlns:rdf="http://www.w3.org/1999/02/22-rdf-syntax-ns#"
   xmlns:svg="http://www.w3.org/2000/svg"
   xmlns="http://www.w3.org/2000/svg"
   xmlns:sodipodi="http://sodipodi.sourceforge.net/DTD/sodipodi-0.dtd"
   xmlns:inkscape="http://www.inkscape.org/namespaces/inkscape"
   width="48pt"
   height="48pt"
   viewBox="0 0 48 48"
   xml:space="preserve"
   id="svg2"
   version="1.1"
   inkscape:version="0.91 r13725"
   sodipodi:docname="input-config.svg"><metadata
     id="metadata18"><rdf:RDF><cc:Work
         rdf:about=""><dc:format>image/svg+xml</dc:format><dc:type
           rdf:resource="http://purl.org/dc/dcmitype/StillImage" /></cc:Work></rdf:RDF></metadata><defs
     id="defs16" /><sodipodi:namedview
     pagecolor="#ffffff"
     bordercolor="#666666"
     borderopacity="1"
     objecttolerance="10"
     gridtolerance="10"
     guidetolerance="10"
     inkscape:pageopacity="0"
     inkscape:pageshadow="2"
     inkscape:window-width="1215"
     inkscape:window-height="1000"
     id="namedview14"
     showgrid="false"
     inkscape:zoom="7.8666667"
     inkscape:cx="22.723095"
     inkscape:cy="39.13225"
     inkscape:window-x="65"
     inkscape:window-y="24"
     inkscape:window-maximized="1"
     inkscape:current-layer="svg2" /><path
     style="clip-rule:nonzero;fill-rule:nonzero;stroke:none;stroke-miterlimit:4"
     d="m 42.688962,21.900499 -2.4,-8.1 -5.6,1.6 c -1.1,-1.6 -2.7,-3 -4.4,-4 l 0.9,-5.5000002 -9.2,-1.2 -0.8,5.3000002 c -0.3,0.1 -0.7,0.2 -1,0.3 -1.2,0.3 -2.3,0.9 -3.3,1.5 l -4.3,-3.3000002 -5.7000009,6.9000002 4.4999999,3.5 c -0.4,1.1 -0.6,2.3 -0.6,3.6 l -5.5999999,1.6 2.4,8.1 5.6000009,-1.6 c 1.1,1.6 2.7,3 4.4,4 l -0.9,5.5 9.2,1.2 0.8,-5.3 c 0.3,-0.1 0.7,-0.2 1,-0.3 1.2,-0.3 2.3,-0.9 3.3,-1.5 l 4.3,3.3 5.7,-6.9 -4.5,-3.5 c 0.4,-1.1 0.6,-2.3 0.6,-3.6 l 5.6,-1.6 z m -17.5,5.9 c -2.8,0.8 -5.8,-0.8 -6.7,-3.6 -0.9,-2.8 0.8,-5.8 3.6,-6.7 2.8,-0.8 5.8,0.8 6.7,3.6 0.8,2.8 -0.8,5.8 -3.6,6.7 z"
     id="path9"
     inkscape:connector-curvature="0" /><g
     id="crop_x0020_marks"
     style="fill-rule:nonzero;clip-rule:nonzero;stroke:#000000;stroke-miterlimit:4;"><path
       style="fill:none;stroke:none;"
       d="M48,48H0V0h48v48z"
       id="path12" /></g></svg>