<?xml version="1.0" encoding="utf-8"?>
<!-- Generator: Adobe Illustrator 19.1.0, SVG Export Plug-In . SVG Version: 6.00 Build 0)  -->
<svg version="1.1"
	 id="svg2" xmlns:cc="http://creativecommons.org/ns#" xmlns:dc="http://purl.org/dc/elements/1.1/" xmlns:rdf="http://www.w3.org/1999/02/22-rdf-syntax-ns#" xmlns:inkscape="http://www.inkscape.org/namespaces/inkscape" xmlns:sodipodi="http://sodipodi.sourceforge.net/DTD/sodipodi-0.dtd" xmlns:svg="http://www.w3.org/2000/svg" inkscape:version="0.91 r13725" inkscape:output_extension="org.inkscape.output.svg.inkscape" sodipodi:docname="and.svg" sodipodi:version="0.32"
	 xmlns="http://www.w3.org/2000/svg" xmlns:xlink="http://www.w3.org/1999/xlink" x="0px" y="0px" viewBox="-252 400.9 90 40"
	 style="enable-background:new -252 400.9 90 40;" xml:space="preserve">
<g id="path3061">
	<rect x="-252" y="409.9" width="26" height="2"/>
</g>
<g id="path3944">
	<rect x="-252" y="429.9" width="27" height="2"/>
</g>
<g id="path2884">
	<path sodipodi:nodetypes="ccccccsccccsssssccc" inkscape:connector-curvature="0" d="M-227,400.9v1.4v37.1v1.4h1.4h19
		c11.3,0,20-9,20-20c0-11-8.7-20-20-20c0,0,0,0-19,0H-227z M-224.1,403.7c8,0,13.1,0,15.2,0c1.2,0,1.8,0,2.1,0c0.1,0,0.2,0,0.3,0
		c0,0,0,0,0,0c9.8,0,16.7,7.6,16.7,17.1c0,9.5-7.4,17.1-17.1,17.1h-17.1C-224.1,438-224.1,403.7-224.1,403.7z"/>
</g>
<rect x="-177.3" y="419.9" width="15.3" height="2"/>
<g>
	<path d="M-181.4,426.3c-2.9,0-5.3-2.4-5.3-5.3c0-2.9,2.4-5.3,5.3-5.3s5.3,2.4,5.3,5.3C-176.1,423.9-178.5,426.3-181.4,426.3z
		 M-181.4,417.7c-1.8,0-3.3,1.5-3.3,3.3c0,1.8,1.5,3.3,3.3,3.3s3.3-1.5,3.3-3.3C-178.1,419.2-179.6,417.7-181.4,417.7z"/>
</g>
</svg>
