<?xml version="1.0" encoding="utf-8"?>
<!-- Generator: Adobe Illustrator 19.1.0, SVG Export Plug-In . SVG Version: 6.00 Build 0)  -->
<svg version="1.1"
	 id="svg2" xmlns:cc="http://creativecommons.org/ns#" xmlns:dc="http://purl.org/dc/elements/1.1/" xmlns:rdf="http://www.w3.org/1999/02/22-rdf-syntax-ns#" xmlns:inkscape="http://www.inkscape.org/namespaces/inkscape" xmlns:sodipodi="http://sodipodi.sourceforge.net/DTD/sodipodi-0.dtd" xmlns:svg="http://www.w3.org/2000/svg" inkscape:version="0.91 r13725" inkscape:output_extension="org.inkscape.output.svg.inkscape" sodipodi:docname="or.svg" sodipodi:version="0.32"
	 xmlns="http://www.w3.org/2000/svg" xmlns:xlink="http://www.w3.org/1999/xlink" x="0px" y="0px" viewBox="-252 400.9 90 40"
	 style="enable-background:new -252 400.9 90 40;" xml:space="preserve">
<defs>
	
	
		<inkscape:perspective  inkscape:vp_z="50 : 15 : 1" id="perspective2714" sodipodi:type="inkscape:persp3d" inkscape:vp_y="0 : 1000 : 0" inkscape:vp_x="0 : 15 : 1" inkscape:persp3d-origin="25 : 10 : 1">
		</inkscape:perspective>
	
		<inkscape:perspective  inkscape:vp_z="1 : 0.5 : 1" id="perspective2806" sodipodi:type="inkscape:persp3d" inkscape:vp_y="0 : 1000 : 0" inkscape:vp_x="0 : 0.5 : 1" inkscape:persp3d-origin="0.5 : 0.33333333 : 1">
		</inkscape:perspective>
	
		<inkscape:perspective  inkscape:vp_z="744.09448 : 526.18109 : 1" id="perspective2819" sodipodi:type="inkscape:persp3d" inkscape:vp_y="0 : 1000 : 0" inkscape:vp_x="0 : 526.18109 : 1" inkscape:persp3d-origin="372.04724 : 350.78739 : 1">
		</inkscape:perspective>
	
		<inkscape:perspective  inkscape:vp_z="150 : 60 : 1" id="perspective2777" sodipodi:type="inkscape:persp3d" inkscape:vp_y="0 : 1000 : 0" inkscape:vp_x="0 : 60 : 1" inkscape:persp3d-origin="75 : 40 : 1">
		</inkscape:perspective>
	
		<inkscape:perspective  inkscape:vp_z="100 : 50 : 1" id="perspective3275" sodipodi:type="inkscape:persp3d" inkscape:vp_y="0 : 1000 : 0" inkscape:vp_x="0 : 50 : 1" inkscape:persp3d-origin="50 : 33.333333 : 1">
		</inkscape:perspective>
	
		<inkscape:perspective  inkscape:vp_z="64 : 32 : 1" id="perspective5533" sodipodi:type="inkscape:persp3d" inkscape:vp_y="0 : 1000 : 0" inkscape:vp_x="0 : 32 : 1" inkscape:persp3d-origin="32 : 21.333333 : 1">
		</inkscape:perspective>
	
		<inkscape:perspective  inkscape:vp_z="50 : 25 : 1" id="perspective2557" sodipodi:type="inkscape:persp3d" inkscape:vp_y="0 : 1000 : 0" inkscape:vp_x="0 : 25 : 1" inkscape:persp3d-origin="25 : 16.666667 : 1">
		</inkscape:perspective>
</defs>
<sodipodi:namedview  inkscape:cy="-39.925494" inkscape:cx="76.456495" inkscape:zoom="2.8284271" showgrid="true" gridtolerance="10000" fit-margin-left="0" fit-margin-top="0" pagecolor="#ffffff" borderopacity="1.0" bordercolor="#666666" id="base" inkscape:pageopacity="0.0" inkscape:pageshadow="2" inkscape:document-units="px" inkscape:current-layer="g2560" inkscape:grid-bbox="true" inkscape:grid-points="true" inkscape:window-width="1399" inkscape:window-height="874" inkscape:window-x="33" inkscape:window-y="27" inkscape:snap-bbox="true" fit-margin-right="0" fit-margin-bottom="0" inkscape:window-maximized="0">
	
		<inkscape:grid  color="#0000ff" type="xygrid" originx="-15.03125" originy="-4.9999904" spacingx="1px" empcolor="#0000ff" opacity="0.2" empspacing="5" empopacity="0.4" enabled="true" spacingy="1px" visible="true" id="GridFromPre046Settings">
		</inkscape:grid>
</sodipodi:namedview>
<g id="path3061">
	<rect x="-252" y="409.9" width="26" height="2"/>
</g>
<g id="path3944">
	<rect x="-252" y="429.9" width="27" height="2"/>
</g>
<rect x="-177.3" y="419.9" width="15.3" height="2"/>
<g>
	<path d="M-181.4,426.2c-2.9,0-5.3-2.4-5.3-5.3c0-2.9,2.4-5.3,5.3-5.3s5.3,2.4,5.3,5.3C-176.1,423.8-178.5,426.2-181.4,426.2z
		 M-181.4,417.6c-1.8,0-3.3,1.5-3.3,3.3c0,1.8,1.5,3.3,3.3,3.3s3.3-1.5,3.3-3.3C-178.1,419.1-179.6,417.6-181.4,417.6z"/>
</g>
<path d="M-185.3,422.6l-0.3-2.1l0.4-1.6c-10.3-17.8-26-18-30.6-18h-14h-3.2l2,2.4c0,0,5.7,7,5.7,17.6c0,10.6-5.7,17.6-5.7,17.6
	l-2,2.4h3.2h14c2.4,0,7.7,0,13.6-2.4c5.7-2.3,12-6.9,17-15.7L-185.3,422.6z M-203.5,435.7c-5.4,2.2-9.8,2.2-12.3,2.2H-227
	c1.9-3.1,4.8-9,4.8-17c0-8-2.9-13.9-4.8-17h11.3c4.7,0,18.3-0.1,28,17C-192.5,429.3-198.3,433.6-203.5,435.7z"/>
</svg>
