<?xml version="1.0" encoding="utf-8"?>
<!-- Generator: Adobe Illustrator 19.1.0, SVG Export Plug-In . SVG Version: 6.00 Build 0)  -->
<svg version="1.1"
	 id="svg2" xmlns:cc="http://creativecommons.org/ns#" xmlns:svg="http://www.w3.org/2000/svg" xmlns:sodipodi="http://sodipodi.sourceforge.net/DTD/sodipodi-0.dtd" xmlns:dc="http://purl.org/dc/elements/1.1/" xmlns:inkscape="http://www.inkscape.org/namespaces/inkscape" xmlns:rdf="http://www.w3.org/1999/02/22-rdf-syntax-ns#" sodipodi:docname="input-config.svg" inkscape:version="0.91 r13725"
	 xmlns="http://www.w3.org/2000/svg" xmlns:xlink="http://www.w3.org/1999/xlink" x="0px" y="0px" viewBox="-265 401.5 63.5 38.4"
	 style="enable-background:new -265 401.5 63.5 38.4;" xml:space="preserve">
<style type="text/css">
	.st0{display:none;}
	.st1{fill:none;stroke:#000000;stroke-width:0.75;stroke-linejoin:round;stroke-miterlimit:10;}
	.st2{fill:#010002;}
</style>
<path class="st0" d="M-242.5,411.8v11.8h-5.4v-11.8H-242.5 M-241.5,410.8h-7.4v13.8h7.4V410.8L-241.5,410.8z"/>
<path d="M-212,425.6l-15.4-8.7v8.5h-17.4v-0.8v-0.3v-1.6c0-0.2-0.1-0.4-0.3-0.4l-2.3-1.2l5.6-2.9c0.2-0.1,0.3-0.3,0.3-0.5
	c0-0.2-0.1-0.4-0.3-0.4l-5.7-2.7l2.4-1.6c0.1-0.1,0.2-0.2,0.2-0.4v-1.4v-0.3v-1h3.1l-3.5-6.1l-3.5,6.1h3v1v0.3v1.2l-2.9,2
	c-0.1,0.1-0.2,0.3-0.2,0.5c0,0.2,0.1,0.3,0.3,0.4l5.6,2.6l-5.6,2.9c-0.2,0.1-0.3,0.3-0.3,0.4s0.1,0.4,0.3,0.4l2.9,1.5v1.3v0.3v0.8
	H-265v0.2v0.8v0.2h37.6v8.5l15.4-8.7h10.5v-0.8H-212z M-245.3,405.2l2.2,3.9h-4.5L-245.3,405.2z M-226.1,432.9v-13.8l12.3,6.9
	L-226.1,432.9z"/>
</svg>
