<?xml version="1.0" encoding="UTF-8" standalone="no"?>
<!-- Created with Inkscape (http://www.inkscape.org/) -->

<svg
   xmlns:dc="http://purl.org/dc/elements/1.1/"
   xmlns:cc="http://creativecommons.org/ns#"
   xmlns:rdf="http://www.w3.org/1999/02/22-rdf-syntax-ns#"
   xmlns:svg="http://www.w3.org/2000/svg"
   xmlns="http://www.w3.org/2000/svg"
   version="1.1"
   width="100%"
   height="100%"
   viewBox="-265 401.5 63.5 38.4"
   id="svg2"
   xml:space="preserve"><metadata
     id="metadata13"><rdf:RDF><cc:Work
         rdf:about=""><dc:format>image/svg+xml</dc:format><dc:type
           rdf:resource="http://purl.org/dc/dcmitype/StillImage" /><dc:title></dc:title></cc:Work></rdf:RDF></metadata><defs
     id="defs11" /><style
     type="text/css"
     id="style3" /><path
     d="m -242.5,411.8 v 11.8 h -5.4 v -11.8 h 5.4 m 1,-1 h -7.4 v 13.8 h 7.4 v -13.8 l 0,0 z"
     id="path5"
     style="display:none" /><path
     d="m -168.16417,460.89487 -15.4,-8.7 0,8.5 c -14.68495,-0.007 -22.2941,0.1 -37.6,0.1 l 0,0.2 0,0.8 0,0.2 37.6,0 0,8.5 15.4,-8.7 10.5,0 0,-0.8 -10.5,0 z m -14.1,7.3 0,-13.8 12.3,6.9 z"
     id="path7" /><path
     d="m -180.51476,415.61325 15.4,8.7 0,-8.5 c 14.68495,0.007 22.2941,-0.1 37.6,-0.1 l -7.82372,0.14516 7.82372,-1.14516 0,-0.2 -37.6,0 0,-8.5 -15.4,8.7 -10.5,0 0,0.8 10.5,0 z m 14.1,-7.3 0,13.8 -12.3,-6.9 z"
     id="path7-3" /><path
     d="M -9.779646,3.5384375 -13.994042,28.522333 -33.523532,12.380612 z"
     transform="matrix(0.62421997,-0.11475609,0.10580733,0.67701399,-219.32984,413.04578)"
     id="path3008"
     style="fill:#ffffff;fill-opacity:1;stroke:#0b0b0b;stroke-width:1.88517857;stroke-linecap:butt;stroke-miterlimit:4;stroke-opacity:1;stroke-dasharray:none" /><path
     d="M -9.779646,3.5384375 -13.994042,28.522333 -33.523532,12.380612 z"
     transform="matrix(-0.62421997,-0.11475609,-0.10580733,0.67701399,-244.99127,400.53022)"
     id="path3008-6"
     style="fill:#ffffff;fill-opacity:1;stroke:#0b0b0b;stroke-width:1.88517857;stroke-linecap:butt;stroke-miterlimit:4;stroke-opacity:1;stroke-dasharray:none" /><path
     d="m 40.154077,11.2471 23.586206,0"
     transform="translate(-265,401.5)"
     id="path3800"
     style="fill:none;stroke:#000000;stroke-width:1px;stroke-linecap:butt;stroke-linejoin:miter;stroke-opacity:1" /><path
     d="m 25.944826,23.73053 -7.363498,0.05753 0,-12.483431 7.075862,0"
     transform="translate(-265,401.5)"
     id="path3802"
     style="fill:none;stroke:#000000;stroke-width:1px;stroke-linecap:butt;stroke-linejoin:miter;stroke-opacity:1" /><path
     d="m -265.02877,412.7471 18.58133,0.0575"
     id="path3804"
     style="fill:none;stroke:#000000;stroke-width:1px;stroke-linecap:butt;stroke-linejoin:miter;stroke-opacity:1" /><path
     d="m 0.08135593,23.918644 12.93559307,0 0,7.566102 19.037288,0 0,-3.905085"
     transform="translate(-265,401.5)"
     id="path3806"
     style="fill:none;stroke:#000000;stroke-width:1px;stroke-linecap:butt;stroke-linejoin:miter;stroke-opacity:1" /><path
     d="m 0,35.959322 49.301695,0 0,-11.79661 -9.355932,0"
     transform="translate(-265,401.5)"
     id="path3812"
     style="fill:none;stroke:#000000;stroke-width:1px;stroke-linecap:butt;stroke-linejoin:miter;stroke-opacity:1" /></svg>