<?xml version="1.0" encoding="UTF-8" standalone="no"?>
<svg
   xmlns:dc="http://purl.org/dc/elements/1.1/"
   xmlns:cc="http://creativecommons.org/ns#"
   xmlns:rdf="http://www.w3.org/1999/02/22-rdf-syntax-ns#"
   xmlns:svg="http://www.w3.org/2000/svg"
   xmlns="http://www.w3.org/2000/svg"
   xmlns:sodipodi="http://sodipodi.sourceforge.net/DTD/sodipodi-0.dtd"
   xmlns:inkscape="http://www.inkscape.org/namespaces/inkscape"
   id="Icons"
   style="enable-background:new 0 0 32 32;"
   version="1.1"
   viewBox="0 0 32 32"
   xml:space="preserve"
   sodipodi:docname="build_dark.svg"
   inkscape:version="1.0.2 (e86c870879, 2021-01-15)"><metadata
     id="metadata17"><rdf:RDF><cc:Work
         rdf:about=""><dc:format>image/svg+xml</dc:format><dc:type
           rdf:resource="http://purl.org/dc/dcmitype/StillImage" /></cc:Work></rdf:RDF></metadata><defs
     id="defs15" /><sodipodi:namedview
     pagecolor="#ffffff"
     bordercolor="#000000"
     borderopacity="0.25"
     objecttolerance="10"
     gridtolerance="10"
     guidetolerance="10"
     inkscape:pageopacity="0"
     inkscape:pageshadow="2"
     inkscape:window-width="1920"
     inkscape:window-height="1016"
     id="namedview13"
     showgrid="false"
     inkscape:zoom="22.96875"
     inkscape:cx="16"
     inkscape:cy="16"
     inkscape:window-x="0"
     inkscape:window-y="0"
     inkscape:window-maximized="1"
     inkscape:current-layer="Icons" /><style
     type="text/css"
     id="style2">
	.st0{fill:none;stroke:#000000;stroke-width:2;stroke-linecap:round;stroke-linejoin:round;stroke-miterlimit:10;}
	.st1{fill:none;stroke:#000000;stroke-width:2;stroke-linejoin:round;stroke-miterlimit:10;}
</style><path
     class="st0"
     d="M28.6,13c-1.6,0.2-3.1-0.5-4-2c-0.8-1.4-0.7-3.2,0.3-4.4c-1.5-1.4-3.3-2.4-5.2-3C19.1,5,17.7,6,16,6  s-3.1-1-3.7-2.5c-2,0.6-3.8,1.6-5.2,3C8,7.8,8.2,9.6,7.3,11c-0.8,1.4-2.4,2.2-4,2c-0.2,1-0.4,2-0.4,3c0,1,0.1,2.1,0.4,3  c1.6-0.2,3.1,0.5,4,2c0.8,1.4,0.7,3.2-0.3,4.4c1.5,1.4,3.3,2.4,5.2,3c0.6-1.4,2-2.5,3.7-2.5s3.1,1,3.7,2.5c2-0.6,3.8-1.6,5.2-3  c-0.9-1.2-1.1-3-0.3-4.4c0.8-1.4,2.4-2.2,4-2c0.2-1,0.4-2,0.4-3C29,15,28.9,13.9,28.6,13z"
     id="path4"
     style="fill:none;fill-opacity:1;stroke:#ffffff;stroke-opacity:1" /><polyline
     class="st0"
     points="11,13 8,16 11,19 "
     id="polyline6"
     style="stroke:#ffffff;stroke-opacity:1" /><polyline
     class="st0"
     points="21,13 24,16 21,19 "
     id="polyline8"
     style="stroke:#ffffff;stroke-opacity:1" /><line
     class="st0"
     x1="18"
     x2="14"
     y1="12"
     y2="20"
     id="line10"
     style="stroke:#ffffff;stroke-opacity:1" /></svg>
