<svg xmlns="http://www.w3.org/2000/svg" viewBox="0 0 20 20"><defs><style>.cls-1{fill:#fff;}</style></defs><title>dark_cross</title><g id="Layer_2" data-name="Layer 2"><g id="Layer_2-2" data-name="Layer 2"><path class="cls-1" d="M13.79,10l5.69-5.69a1.79,1.79,0,0,0,0-2.52L18.21.52a1.79,1.79,0,0,0-2.52,0L10,6.21,4.31.52a1.79,1.79,0,0,0-2.52,0L.52,1.79a1.79,1.79,0,0,0,0,2.52L6.21,10,.52,15.69a1.79,1.79,0,0,0,0,2.52l1.27,1.27a1.79,1.79,0,0,0,2.52,0L10,13.79l5.69,5.69a1.79,1.79,0,0,0,2.52,0l1.27-1.27a1.79,1.79,0,0,0,0-2.52Z"/></g></g></svg>