<svg xmlns="http://www.w3.org/2000/svg" viewBox="0 0 28.28 16.53"><defs><style>.cls-1{fill:#fff;}</style></defs><title>dark_case-sensitive</title><g id="Layer_2" data-name="Layer 2"><g id="Layer_2-2" data-name="Layer 2"><path class="cls-1" d="M16.32,16.27H12.75l-1.42-3.7H4.83l-1.35,3.7H0L6.34,0H9.81ZM10.27,9.83,8,3.79l-2.19,6Z"/><path class="cls-1" d="M20.37,8.08l-2.83-.51A4.38,4.38,0,0,1,19.19,5a6,6,0,0,1,3.46-.82,7.42,7.42,0,0,1,3.1.49A3.16,3.16,0,0,1,27.19,6a6.39,6.39,0,0,1,.42,2.79l0,3.64a12.76,12.76,0,0,0,.15,2.3,7,7,0,0,0,.56,1.58H25.2c-.08-.21-.18-.52-.3-.92,0-.19-.09-.31-.11-.37a5.35,5.35,0,0,1-1.71,1.16,4.87,4.87,0,0,1-1.94.39,4,4,0,0,1-2.87-1,3.26,3.26,0,0,1-1.05-2.49,3.32,3.32,0,0,1,.48-1.78A3.13,3.13,0,0,1,19,10.07a10.4,10.4,0,0,1,2.48-.73,17.36,17.36,0,0,0,3-.76V8.27A1.62,1.62,0,0,0,24.1,7a2.69,2.69,0,0,0-1.67-.38,2.21,2.21,0,0,0-1.3.33A2.27,2.27,0,0,0,20.37,8.08Zm4.17,2.53a18.86,18.86,0,0,1-1.89.47,5.76,5.76,0,0,0-1.7.55,1.29,1.29,0,0,0-.61,1.1,1.52,1.52,0,0,0,.49,1.13,1.69,1.69,0,0,0,1.24.48,2.71,2.71,0,0,0,1.61-.56,1.92,1.92,0,0,0,.74-1,6.26,6.26,0,0,0,.12-1.52Z"/></g></g></svg>