<?xml version="1.0" encoding="utf-8"?>
<!-- Generator: Adobe Illustrator 22.0.0, SVG Export Plug-In . SVG Version: 6.00 Build 0)  -->
<svg version="1.1" id="Layer_1" xmlns="http://www.w3.org/2000/svg" xmlns:xlink="http://www.w3.org/1999/xlink" x="0px" y="0px"
	 viewBox="0 0 16 16" style="enable-background:new 0 0 16 16;" xml:space="preserve">
<style type="text/css">
	.st0{fill:#FFFFFF;}
</style>
<path class="st0" d="M7.1,2c-0.5,0-1,0.1-1.4,0.3C5.1,2.5,4.5,2.8,4.1,3.2S3.2,4.1,2.9,4.7C2.6,5.3,2.5,5.9,2.4,6.6
	c0,0.7,0,1.3,0.3,1.9c0.2,0.6,0.5,1.2,0.9,1.6C4,10.6,4.5,11,5.1,11.3c0.6,0.3,1.2,0.5,1.9,0.5c1,0.1,2-0.2,2.8-0.7l2.2,2.5
	c0.2,0.2,0.4,0.3,0.6,0.3c0.2,0,0.5-0.1,0.6-0.2c0.2-0.2,0.3-0.4,0.3-0.6c0-0.2-0.1-0.5-0.2-0.6L11.2,10c0.6-0.8,1-1.7,1-2.7
	c0-0.7,0-1.3-0.3-1.9c-0.2-0.6-0.5-1.2-0.9-1.6c-0.4-0.5-0.9-0.9-1.5-1.1C8.9,2.2,8.3,2.1,7.6,2C7.5,2,7.3,2,7.1,2L7.1,2z M7.5,3.8
	c0.9,0.1,1.6,0.4,2.1,1.1c0.6,0.7,0.8,1.4,0.8,2.3C10.4,8,10,8.7,9.4,9.3C8.7,9.8,8,10.1,7.1,10C6.2,10,5.5,9.6,5,9
	C4.4,8.3,4.1,7.6,4.2,6.7c0.1-0.9,0.4-1.6,1.1-2.1C5.9,4,6.7,3.7,7.5,3.8z"/>
</svg>
