<svg xmlns="http://www.w3.org/2000/svg" viewBox="0 0 20 17.5"><defs><style>.cls-1{fill:#000;}</style></defs><title>dark_exact-match</title><g id="Layer_2" data-name="Layer 2"><g id="Layer_2-2" data-name="Layer 2"><path class="cls-1" d="M18.13,0h-5a1.88,1.88,0,0,0-1.88,1.88v5a1.88,1.88,0,0,0,1.88,1.87h3.12v2.5a2.5,2.5,0,0,1-2.5,2.5h-.31a.94.94,0,0,0-.94.94v1.87a.94.94,0,0,0,.94.94h.31A6.25,6.25,0,0,0,20,11.25V1.88A1.88,1.88,0,0,0,18.13,0ZM6.88,0h-5A1.88,1.88,0,0,0,0,1.88v5A1.88,1.88,0,0,0,1.88,8.75H5v2.5a2.5,2.5,0,0,1-2.5,2.5H2.19a.94.94,0,0,0-.94.94v1.87a.94.94,0,0,0,.94.94H2.5a6.25,6.25,0,0,0,6.25-6.25V1.88A1.88,1.88,0,0,0,6.88,0Z"/></g></g></svg>