<?xml version="1.0" ?><svg id="input-1" style="enable-background:new 0 0 24 32;" version="1.1" viewBox="0 0 24 32" xml:space="preserve" xmlns="http://www.w3.org/2000/svg" xmlns:xlink="http://www.w3.org/1999/xlink"><g><path d="M6.707,13.293l-1.414,1.414l6,6C11.488,20.902,11.744,21,12,21s0.512-0.098,0.707-0.293l6-6l-1.414-1.414L13,17.586V0h-2   v17.586L6.707,13.293z"/><path d="M23,9h-7v2h6v19H2V11h6V9H1c-0.552,0-1,0.448-1,1v21c0,0.552,0.448,1,1,1h22c0.552,0,1-0.448,1-1V10   C24,9.448,23.552,9,23,9z"/></g></svg>