<?xml version="1.0" encoding="UTF-8" standalone="no"?>
<svg
   xmlns:dc="http://purl.org/dc/elements/1.1/"
   xmlns:cc="http://creativecommons.org/ns#"
   xmlns:rdf="http://www.w3.org/1999/02/22-rdf-syntax-ns#"
   xmlns:svg="http://www.w3.org/2000/svg"
   xmlns="http://www.w3.org/2000/svg"
   xmlns:sodipodi="http://sodipodi.sourceforge.net/DTD/sodipodi-0.dtd"
   xmlns:inkscape="http://www.inkscape.org/namespaces/inkscape"
   id="input-1"
   style="enable-background:new 0 0 24 32;"
   version="1.1"
   viewBox="0 0 24 32"
   xml:space="preserve"
   sodipodi:docname="upload_dark.svg"
   inkscape:version="1.0.2 (e86c870879, 2021-01-15)"><metadata
     id="metadata13"><rdf:RDF><cc:Work
         rdf:about=""><dc:format>image/svg+xml</dc:format><dc:type
           rdf:resource="http://purl.org/dc/dcmitype/StillImage" /></cc:Work></rdf:RDF></metadata><defs
     id="defs11" /><sodipodi:namedview
     pagecolor="#ffffff"
     bordercolor="#000000"
     borderopacity="0.25"
     objecttolerance="10"
     gridtolerance="10"
     guidetolerance="10"
     inkscape:pageopacity="0"
     inkscape:pageshadow="2"
     inkscape:window-width="1920"
     inkscape:window-height="1016"
     id="namedview9"
     showgrid="false"
     inkscape:zoom="22.96875"
     inkscape:cx="12"
     inkscape:cy="16"
     inkscape:window-x="0"
     inkscape:window-y="0"
     inkscape:window-maximized="1"
     inkscape:current-layer="g6" /><g
     id="g6"><path
       d="M6.707,13.293l-1.414,1.414l6,6C11.488,20.902,11.744,21,12,21s0.512-0.098,0.707-0.293l6-6l-1.414-1.414L13,17.586V0h-2   v17.586L6.707,13.293z"
       id="path2"
       style="stroke:#ffffff;stroke-opacity:1;fill:#ffffff;fill-opacity:1" /><path
       d="M23,9h-7v2h6v19H2V11h6V9H1c-0.552,0-1,0.448-1,1v21c0,0.552,0.448,1,1,1h22c0.552,0,1-0.448,1-1V10   C24,9.448,23.552,9,23,9z"
       id="path4"
       style="stroke:#ffffff;stroke-opacity:1;fill:#ffffff;fill-opacity:1" /></g></svg>
