<?xml version="1.0" encoding="UTF-8" standalone="no"?>
<svg
   xmlns:dc="http://purl.org/dc/elements/1.1/"
   xmlns:cc="http://creativecommons.org/ns#"
   xmlns:rdf="http://www.w3.org/1999/02/22-rdf-syntax-ns#"
   xmlns:svg="http://www.w3.org/2000/svg"
   xmlns="http://www.w3.org/2000/svg"
   xml:space="preserve"
   viewBox="0 0 743.12 743.12"
   version="1.1"
   id="GUIDE"
   enable-background="new 0 0 800 800"><metadata
     id="metadata11"><rdf:RDF><cc:Work
         rdf:about=""><dc:format>image/svg+xml</dc:format><dc:type
           rdf:resource="http://purl.org/dc/dcmitype/StillImage" /><dc:title></dc:title></cc:Work></rdf:RDF></metadata><defs
     id="defs9"><marker
       style="overflow:visible"
       id="marker1376"
       refX="0"
       refY="0"
       orient="auto"><path
         transform="matrix(0.8,0,0,0.8,10,0)"
         style="fill:#c0c0c0;fill-opacity:1;fill-rule:evenodd;stroke:none;stroke-width:1.00000003pt;stroke-opacity:1"
         d="M 0,0 5,-5 -12.5,0 5,5 Z"
         id="path1374" /></marker><marker
       style="overflow:visible"
       id="marker1318"
       refX="0"
       refY="0"
       orient="auto"><path
         transform="matrix(0.8,0,0,0.8,10,0)"
         style="fill:#08213d;fill-opacity:1;fill-rule:evenodd;stroke:none;stroke-width:1.00000003pt;stroke-opacity:1"
         d="M 0,0 5,-5 -12.5,0 5,5 Z"
         id="path1316" /></marker><marker
       style="overflow:visible"
       id="marker1266"
       refX="0"
       refY="0"
       orient="auto"><path
         transform="matrix(0.8,0,0,0.8,10,0)"
         style="fill:#08213d;fill-opacity:1;fill-rule:evenodd;stroke:none;stroke-width:1.00000003pt;stroke-opacity:1"
         d="M 0,0 5,-5 -12.5,0 5,5 Z"
         id="path1264" /></marker><marker
       style="overflow:visible"
       id="marker1220"
       refX="0"
       refY="0"
       orient="auto"><path
         transform="matrix(0.8,0,0,0.8,10,0)"
         style="fill:#08213d;fill-opacity:1;fill-rule:evenodd;stroke:none;stroke-width:1.00000003pt;stroke-opacity:1"
         d="M 0,0 5,-5 -12.5,0 5,5 Z"
         id="path1218" /></marker><marker
       style="overflow:visible"
       id="marker1180"
       refX="0"
       refY="0"
       orient="auto"><path
         transform="matrix(0.8,0,0,0.8,10,0)"
         style="fill:#08213d;fill-opacity:1;fill-rule:evenodd;stroke:none;stroke-width:1.00000003pt;stroke-opacity:1"
         d="M 0,0 5,-5 -12.5,0 5,5 Z"
         id="path1178" /></marker><marker
       style="overflow:visible"
       id="marker1146"
       refX="0"
       refY="0"
       orient="auto"><path
         transform="matrix(0.8,0,0,0.8,10,0)"
         style="fill:#08213d;fill-opacity:1;fill-rule:evenodd;stroke:none;stroke-width:1.00000003pt;stroke-opacity:1"
         d="M 0,0 5,-5 -12.5,0 5,5 Z"
         id="path1144" /></marker><marker
       style="overflow:visible"
       id="marker1118"
       refX="0"
       refY="0"
       orient="auto"><path
         transform="matrix(0.8,0,0,0.8,10,0)"
         style="fill:#08213d;fill-opacity:1;fill-rule:evenodd;stroke:none;stroke-width:1.00000003pt;stroke-opacity:1"
         d="M 0,0 5,-5 -12.5,0 5,5 Z"
         id="path1116" /></marker><marker
       style="overflow:visible"
       id="marker1096"
       refX="0"
       refY="0"
       orient="auto"><path
         transform="matrix(0.8,0,0,0.8,10,0)"
         style="fill:#08213d;fill-opacity:1;fill-rule:evenodd;stroke:none;stroke-width:1.00000003pt;stroke-opacity:1"
         d="M 0,0 5,-5 -12.5,0 5,5 Z"
         id="path1094" /></marker><marker
       style="overflow:visible"
       id="Arrow1Lstart"
       refX="0"
       refY="0"
       orient="auto"><path
         transform="matrix(0.8,0,0,0.8,10,0)"
         style="fill:#08213d;fill-opacity:1;fill-rule:evenodd;stroke:none;stroke-width:1.00000003pt;stroke-opacity:1"
         d="M 0,0 5,-5 -12.5,0 5,5 Z"
         id="path818" /></marker></defs><path
     style="fill:#c0c0c0;fill-opacity:1"
     id="path2"
     d="M 522.316,205.804 H 220.805 c -8.285,0 -15,6.717 -15,15 v 301.512 c 0,8.284 6.715,15 15,15 h 301.511 c 8.284,0 15,-6.716 15,-15 V 220.804 c 0,-8.283 -6.716,-15 -15,-15 z m -15,301.512 H 235.805 V 235.804 h 271.511 z" /><path
     style="fill:#c0c0c0;fill-opacity:1;stroke-width:0;stroke-miterlimit:4;stroke-dasharray:none;marker-end:url(#marker1376)"
     id="path4"
     d="m 728.12,336.308 c 8.284,0 15,-6.716 15,-15 0,-8.284 -6.716,-15 -15,-15 H 609.081 V 235.804 H 728.12 c 8.284,0 15,-6.716 15,-15 0,-8.284 -6.716,-15 -15,-15 H 609.081 V 149.04 c 0,-8.284 -6.717,-15 -15,-15 H 537.316 V 15 c 0,-8.284 -6.716,-15 -15,-15 -8.284,0 -15,6.716 -15,15 V 134.04 H 436.812 V 15 c 0,-8.284 -6.716,-15 -15,-15 -8.284,0 -15,6.716 -15,15 V 134.04 H 336.308 V 15 c 0,-8.284 -6.716,-15 -15,-15 -8.284,0 -15,6.716 -15,15 V 134.04 H 235.804 V 15 c 0,-8.284 -6.716,-15 -15,-15 -8.284,0 -15,6.716 -15,15 V 134.04 H 149.04 c -8.284,0 -15,6.716 -15,15 v 56.764 H 15 c -8.284,0 -15,6.717 -15,15 0,8.285 6.716,15 15,15 h 119.04 v 70.504 H 15 c -8.284,0 -15,6.717 -15,15 0,8.285 6.716,15 15,15 h 119.04 v 70.504 H 15 c -8.284,0 -15,6.716 -15,15 0,8.284 6.716,15 15,15 h 119.04 v 70.505 H 15 c -8.284,0 -15,6.716 -15,15 0,8.284 6.716,15 15,15 h 119.04 v 56.763 c 0,8.284 6.716,15 15,15 h 56.765 v 119.04 c 0,8.284 6.715,15 15,15 8.283,0 15,-6.716 15,-15 V 609.08 h 70.504 v 119.04 c 0,8.284 6.715,15 15,15 8.283,0 15,-6.716 15,-15 V 609.08 h 70.503 v 119.04 c 0,8.284 6.716,15 15,15 8.284,0 15,-6.716 15,-15 V 609.08 h 70.504 v 119.04 c 0,8.284 6.716,15 15,15 8.284,0 15,-6.716 15,-15 V 609.08 h 56.764 c 8.284,0 15,-6.716 15,-15 v -56.764 h 119.04 c 8.284,0 15,-6.716 15,-15 0,-8.284 -6.716,-15 -15,-15 H 609.081 V 436.812 H 728.12 c 8.284,0 15,-6.716 15,-15 0,-8.284 -6.716,-15 -15,-15 H 609.081 V 336.308 Z M 579.081,579.08 H 164.04 V 164.04 h 415.041 z" /></svg>