<?xml version="1.0" encoding="UTF-8" standalone="no"?>
<!-- Created with Inkscape (http://www.inkscape.org/) -->

<svg
   xmlns:dc="http://purl.org/dc/elements/1.1/"
   xmlns:cc="http://creativecommons.org/ns#"
   xmlns:rdf="http://www.w3.org/1999/02/22-rdf-syntax-ns#"
   xmlns:svg="http://www.w3.org/2000/svg"
   xmlns="http://www.w3.org/2000/svg"
   xmlns:sodipodi="http://sodipodi.sourceforge.net/DTD/sodipodi-0.dtd"
   xmlns:inkscape="http://www.inkscape.org/namespaces/inkscape"
   width="103.81227mm"
   height="103.80888mm"
   viewBox="0 0 367.83883 367.82675"
   id="svg4694"
   version="1.1"
   inkscape:version="0.91 r13725"
   sodipodi:docname="icon.svg"
   inkscape:export-filename="/home/jesus/code/icestudio/doc/icons/icon.png"
   inkscape:export-xdpi="62.638184"
   inkscape:export-ydpi="62.638184">
  <defs
     id="defs4696" />
  <sodipodi:namedview
     id="base"
     pagecolor="#ffffff"
     bordercolor="#666666"
     borderopacity="1.0"
     inkscape:pageopacity="0"
     inkscape:pageshadow="2"
     inkscape:zoom="1.4"
     inkscape:cx="-10.548086"
     inkscape:cy="146.09537"
     inkscape:document-units="px"
     inkscape:current-layer="g4314"
     showgrid="false"
     fit-margin-left="4"
     fit-margin-top="10.2"
     fit-margin-bottom="10.2"
     fit-margin-right="4"
     inkscape:window-width="1920"
     inkscape:window-height="1016"
     inkscape:window-x="0"
     inkscape:window-y="27"
     inkscape:window-maximized="1" />
  <metadata
     id="metadata4699">
    <rdf:RDF>
      <cc:Work
         rdf:about="">
        <dc:format>image/svg+xml</dc:format>
        <dc:type
           rdf:resource="http://purl.org/dc/dcmitype/StillImage" />
        <dc:title></dc:title>
      </cc:Work>
    </rdf:RDF>
  </metadata>
  <g
     inkscape:label="Layer 1"
     inkscape:groupmode="layer"
     id="layer1"
     transform="translate(-56.086737,-137.01309)">
    <g
       id="g4255"
       transform="translate(1.3533226e-5,-1.3846548e-5)">
      <g
         id="g4144">
        <g
           id="g4531">
          <g
             id="g4314">
            <g
               id="g4647"
               transform="translate(0,-3.8672039e-6)">
              <path
                 inkscape:connector-curvature="0"
                 id="path5273"
                 d="m 192.73088,338.4595 c -7.08883,-4.05808 -35.84183,-20.45381 -63.89552,-36.43494 -28.0537,-15.98112 -51.098718,-29.14484 -51.211146,-29.25267 -0.112424,-0.10784 35.983076,-20.4374 80.212196,-45.17682 l 80.41662,-44.98076 0.16549,31.82418 c 0.0909,17.50329 0.18357,49.86579 0.20567,71.91668 l 0.0401,40.09251 -1.02838,0.16936 c -5.22555,0.86074 -10.26034,2.40165 -14.35643,4.39383 -5.56033,2.70437 -12.12233,8.00535 -15.74027,12.71547 -0.90498,1.17813 -1.70708,2.1352 -1.7825,2.12678 -0.0754,-0.008 -5.93707,-3.33554 -13.02592,-7.39362 z"
                 style="opacity:1;fill:#7ccff4;fill-opacity:1;stroke:none;stroke-width:2.52538133;stroke-linecap:butt;stroke-linejoin:round;stroke-miterlimit:4;stroke-dasharray:none;stroke-dashoffset:0;stroke-opacity:1" />
              <path
                 inkscape:connector-curvature="0"
                 id="path5275"
                 d="m 270.22798,342.10885 c -5.53154,-6.85396 -15.0663,-12.8521 -23.32043,-14.67047 -2.20102,-0.48489 -4.26242,-0.94849 -4.58081,-1.03024 -0.41044,-0.10535 -0.67824,-21.06347 -0.92021,-72.01396 -0.1877,-39.52595 -0.28601,-71.9206 -0.21842,-71.98813 0.13061,-0.13051 155.45895,89.52545 155.94684,90.01297 0.29224,0.29202 -123.30606,72.96451 -123.98007,72.89696 -0.20258,-0.0202 -1.5197,-1.46352 -2.9269,-3.20713 z"
                 style="opacity:1;fill:#7ccff4;fill-opacity:1;stroke:none;stroke-width:5.05076265;stroke-linecap:butt;stroke-linejoin:round;stroke-miterlimit:4;stroke-dasharray:none;stroke-dashoffset:0;stroke-opacity:1" />
              <path
                 inkscape:connector-curvature="0"
                 id="path5277"
                 d="m 76.642646,366.29941 c 0,-72.25134 0.136869,-90.39455 0.679381,-90.05836 0.373661,0.23155 29.050343,16.83464 63.725963,36.89578 37.16987,21.50415 63.0139,36.77041 62.96697,37.19506 -0.0437,0.39618 -0.48021,2.16484 -0.96986,3.93038 -2.02936,7.31736 -1.64743,17.28213 0.95516,24.92079 l 1.22365,3.59145 -61.12688,35.23237 c -33.61976,19.3778 -62.550548,36.02876 -64.290619,37.00214 l -3.163765,1.76976 0,-90.47937 z"
                 style="opacity:1;fill:#7ccff4;fill-opacity:1;stroke:none;stroke-width:5.05076265;stroke-linecap:butt;stroke-linejoin:round;stroke-miterlimit:4;stroke-dasharray:none;stroke-dashoffset:0;stroke-opacity:1" />
              <path
                 inkscape:connector-curvature="0"
                 id="path5279"
                 d="m 338.01237,421.91272 c -34.01398,-20.50341 -62.01501,-37.44878 -62.22452,-37.65636 -0.20951,-0.20758 0.23884,-2.33171 0.99634,-4.72029 2.04807,-6.45811 2.36226,-16.72909 0.73283,-23.956 -0.64796,-2.87383 -1.09695,-5.2932 -0.99775,-5.37639 0.58809,-0.49319 123.61303,-74.30071 123.84703,-74.30071 0.39008,0 0.22335,154.29091 -0.18414,170.39645 l -0.32619,12.89223 -61.8436,-37.27893 z"
                 style="opacity:1;fill:#7ccff4;fill-opacity:1;stroke:none;stroke-width:5.05076265;stroke-linecap:butt;stroke-linejoin:round;stroke-miterlimit:4;stroke-dasharray:none;stroke-dashoffset:0;stroke-opacity:1" />
              <path
                 inkscape:connector-curvature="0"
                 id="path5277-3-5-1"
                 d="m 404.68529,279.82577 c -6.61433,29.19111 14.64462,140.16993 -3.25471,147.92916 -39.03582,-67.44487 -85.93991,-95.6326 -85.93991,-95.6326 0,0 60.69744,-43.43836 89.19462,-52.29656 z"
                 style="opacity:1;fill:#98ddf4;fill-opacity:1;stroke:none;stroke-width:5.05076265;stroke-linecap:butt;stroke-linejoin:round;stroke-miterlimit:4;stroke-dasharray:none;stroke-dashoffset:0;stroke-opacity:1"
                 sodipodi:nodetypes="cccc" />
              <path
                 inkscape:connector-curvature="0"
                 id="path5277-3-5-2"
                 d="m 242.06468,180.2752 c 22.05162,20.23909 128.93495,56.90152 126.78022,76.29157 -77.92596,0.38615 -125.68594,27.09807 -125.68594,27.09807 0,0 -7.55838,-74.25593 -1.09428,-103.38964 z"
                 style="opacity:1;fill:#98ddf4;fill-opacity:1;stroke:none;stroke-width:5.05076265;stroke-linecap:butt;stroke-linejoin:round;stroke-miterlimit:4;stroke-dasharray:none;stroke-dashoffset:0;stroke-opacity:1"
                 sodipodi:nodetypes="cccc" />
              <path
                 inkscape:connector-curvature="0"
                 id="path5277-3-5-7"
                 d="m 77.882103,269.84632 c 28.774877,-8.23984 115.849877,-80.25486 131.261837,-68.29316 -40.35777,66.66225 -42.51269,121.3422 -42.51269,121.3422 0,0 -67.276995,-32.32458 -88.749147,-53.04904 z"
                 style="opacity:1;fill:#98ddf4;fill-opacity:1;stroke:none;stroke-width:5.05076265;stroke-linecap:butt;stroke-linejoin:round;stroke-miterlimit:4;stroke-dasharray:none;stroke-dashoffset:0;stroke-opacity:1"
                 sodipodi:nodetypes="cccc" />
              <path
                 inkscape:connector-curvature="0"
                 id="path5277-3-5-0"
                 d="m 74.464715,458.96886 c 6.991172,-29.10389 -12.839851,-140.34636 5.158924,-147.87499 38.164281,67.94183 84.701591,96.73106 84.701591,96.73106 0,0 -61.25166,42.65335 -89.860515,51.14393 z"
                 style="opacity:1;fill:#98ddf4;fill-opacity:1;stroke:none;stroke-width:5.05076265;stroke-linecap:butt;stroke-linejoin:round;stroke-miterlimit:4;stroke-dasharray:none;stroke-dashoffset:0;stroke-opacity:1"
                 sodipodi:nodetypes="cccc" />
              <path
                 sodipodi:nodetypes="cccccssccccccccc"
                 inkscape:connector-curvature="0"
                 d="m 76.344456,273.55141 163.717404,-94.3967 163.6086,94.585 -0.1085,188.9589 -131.1038,-77.1223 c 9.0732,-15.7215 5.5582,-35.6558 -8.324,-47.3043 -13.8822,-11.6486 -34.124,-11.6486 -48.0062,0 -13.8822,11.6485 -17.3972,31.5828 -8.3385,47.273 l -131.529504,76.9894 z m 129.439504,76.0371 -129.425604,-76.0002 m 163.704504,-92.85544 0.092,148.18224 m 34.6501,20.4525 128.8736,-75.6209"
                 style="fill:none;fill-opacity:1;fill-rule:evenodd;stroke:#275d75;stroke-width:12.00000191;stroke-linecap:round;stroke-linejoin:round;stroke-miterlimit:4;stroke-dasharray:none;stroke-opacity:1"
                 id="path7851-1-6-8-3-1" />
            </g>
          </g>
        </g>
      </g>
    </g>
  </g>
</svg>
