<svg xmlns="http://www.w3.org/2000/svg" viewBox="0 0 11.2 12"><defs><style>.cls-1{fill:#fff;}</style></defs><title>Asset 7</title><g id="Layer_2" data-name="Layer 2"><g id="tests"><path class="cls-1" d="M4.73,0A5,5,0,0,0,3.3.27a4.8,4.8,0,0,0-1.63,1A4.92,4.92,0,0,0,.52,2.72,4.75,4.75,0,0,0,0,4.6,5,5,0,0,0,.27,6.53,4.8,4.8,0,0,0,2.71,9.32a4.7,4.7,0,0,0,1.87.51,4.74,4.74,0,0,0,2.83-.68l2.23,2.54a.86.86,0,0,0,1.25.08.87.87,0,0,0,.31-.61.88.88,0,0,0-.22-.64L8.75,8A4.83,4.83,0,0,0,9.8,5.24,4.94,4.94,0,0,0,8.59,1.67,4.76,4.76,0,0,0,7.1.52,4.87,4.87,0,0,0,5.22,0Zm.38,1.8A3,3,0,0,1,7.25,2.86,3,3,0,0,1,8,5.13,3,3,0,0,1,7,7.27a3,3,0,0,1-2.26.78A3,3,0,0,1,2.56,7a3,3,0,0,1-.77-2.27A3,3,0,0,1,2.85,2.57,3,3,0,0,1,5.11,1.8Z"/></g></g></svg>