<?xml version="1.0" encoding="UTF-8" standalone="no"?>
<!-- Created with Inkscape (http://www.inkscape.org/) -->

<svg
   xmlns:dc="http://purl.org/dc/elements/1.1/"
   xmlns:cc="http://creativecommons.org/ns#"
   xmlns:rdf="http://www.w3.org/1999/02/22-rdf-syntax-ns#"
   xmlns:svg="http://www.w3.org/2000/svg"
   xmlns="http://www.w3.org/2000/svg"
   xmlns:sodipodi="http://sodipodi.sourceforge.net/DTD/sodipodi-0.dtd"
   xmlns:inkscape="http://www.inkscape.org/namespaces/inkscape"
   width="400.02451mm"
   height="103.40891mm"
   viewBox="0 0 1417.4096 366.40951"
   id="svg9427"
   version="1.1"
   inkscape:version="0.91 r13725"
   sodipodi:docname="icestudio-logo-label.svg"
   inkscape:export-filename="/home/jesus/code/icestudio/doc/images/icestudio-logo-label.png"
   inkscape:export-xdpi="26"
   inkscape:export-ydpi="26">
  <defs
     id="defs9429">
    <filter
       id="filter4188"
       inkscape:label="Drop Shadow"
       style="color-interpolation-filters:sRGB">
      <feFlood
         id="feFlood4190"
         result="flood"
         flood-color="rgb(0,0,0)"
         flood-opacity="0.498039" />
      <feComposite
         id="feComposite4192"
         result="composite1"
         operator="in"
         in2="SourceGraphic"
         in="flood" />
      <feGaussianBlur
         id="feGaussianBlur4194"
         result="blur"
         stdDeviation="3"
         in="composite1" />
      <feOffset
         id="feOffset4196"
         result="offset"
         dy="6"
         dx="6" />
      <feComposite
         id="feComposite4198"
         result="composite2"
         operator="over"
         in2="offset"
         in="SourceGraphic" />
    </filter>
  </defs>
  <sodipodi:namedview
     id="base"
     pagecolor="#ffffff"
     bordercolor="#666666"
     borderopacity="1.0"
     inkscape:pageopacity="0.0"
     inkscape:pageshadow="2"
     inkscape:zoom="0.51871322"
     inkscape:cx="816.86015"
     inkscape:cy="-64.333489"
     inkscape:document-units="px"
     inkscape:current-layer="text7134-5-1-6-3-1-4"
     showgrid="false"
     fit-margin-top="10"
     fit-margin-left="10"
     fit-margin-right="10"
     fit-margin-bottom="10"
     inkscape:window-width="1920"
     inkscape:window-height="1016"
     inkscape:window-x="0"
     inkscape:window-y="27"
     inkscape:window-maximized="1" />
  <metadata
     id="metadata9432">
    <rdf:RDF>
      <cc:Work
         rdf:about="">
        <dc:format>image/svg+xml</dc:format>
        <dc:type
           rdf:resource="http://purl.org/dc/dcmitype/StillImage" />
        <dc:title />
      </cc:Work>
    </rdf:RDF>
  </metadata>
  <g
     inkscape:label="Layer 1"
     inkscape:groupmode="layer"
     id="layer1"
     transform="translate(-261.53536,-30.981611)">
    <g
       id="g4647"
       transform="translate(226.70848,-106.74012)">
      <path
         inkscape:connector-curvature="0"
         id="path5273"
         d="m 192.73088,338.4595 c -7.08883,-4.05808 -35.84183,-20.45381 -63.89552,-36.43494 -28.0537,-15.98112 -51.098718,-29.14484 -51.211146,-29.25267 -0.112424,-0.10784 35.983076,-20.4374 80.212196,-45.17682 l 80.41662,-44.98076 0.16549,31.82418 c 0.0909,17.50329 0.18357,49.86579 0.20567,71.91668 l 0.0401,40.09251 -1.02838,0.16936 c -5.22555,0.86074 -10.26034,2.40165 -14.35643,4.39383 -5.56033,2.70437 -12.12233,8.00535 -15.74027,12.71547 -0.90498,1.17813 -1.70708,2.1352 -1.7825,2.12678 -0.0754,-0.008 -5.93707,-3.33554 -13.02592,-7.39362 z"
         style="opacity:1;fill:#7ccff4;fill-opacity:1;stroke:none;stroke-width:2.52538133;stroke-linecap:butt;stroke-linejoin:round;stroke-miterlimit:4;stroke-dasharray:none;stroke-dashoffset:0;stroke-opacity:1" />
      <path
         inkscape:connector-curvature="0"
         id="path5275"
         d="m 270.22798,342.10885 c -5.53154,-6.85396 -15.0663,-12.8521 -23.32043,-14.67047 -2.20102,-0.48489 -4.26242,-0.94849 -4.58081,-1.03024 -0.41044,-0.10535 -0.67824,-21.06347 -0.92021,-72.01396 -0.1877,-39.52595 -0.28601,-71.9206 -0.21842,-71.98813 0.13061,-0.13051 155.45895,89.52545 155.94684,90.01297 0.29224,0.29202 -123.30606,72.96451 -123.98007,72.89696 -0.20258,-0.0202 -1.5197,-1.46352 -2.9269,-3.20713 z"
         style="opacity:1;fill:#7ccff4;fill-opacity:1;stroke:none;stroke-width:5.05076265;stroke-linecap:butt;stroke-linejoin:round;stroke-miterlimit:4;stroke-dasharray:none;stroke-dashoffset:0;stroke-opacity:1" />
      <path
         inkscape:connector-curvature="0"
         id="path5277"
         d="m 76.642646,366.29941 c 0,-72.25134 0.136869,-90.39455 0.679381,-90.05836 0.373661,0.23155 29.050343,16.83464 63.725963,36.89578 37.16987,21.50415 63.0139,36.77041 62.96697,37.19506 -0.0437,0.39618 -0.48021,2.16484 -0.96986,3.93038 -2.02936,7.31736 -1.64743,17.28213 0.95516,24.92079 l 1.22365,3.59145 -61.12688,35.23237 c -33.61976,19.3778 -62.550548,36.02876 -64.290619,37.00214 l -3.163765,1.76976 0,-90.47937 z"
         style="opacity:1;fill:#7ccff4;fill-opacity:1;stroke:none;stroke-width:5.05076265;stroke-linecap:butt;stroke-linejoin:round;stroke-miterlimit:4;stroke-dasharray:none;stroke-dashoffset:0;stroke-opacity:1" />
      <path
         inkscape:connector-curvature="0"
         id="path5279"
         d="m 338.01237,421.91272 c -34.01398,-20.50341 -62.01501,-37.44878 -62.22452,-37.65636 -0.20951,-0.20758 0.23884,-2.33171 0.99634,-4.72029 2.04807,-6.45811 2.36226,-16.72909 0.73283,-23.956 -0.64796,-2.87383 -1.09695,-5.2932 -0.99775,-5.37639 0.58809,-0.49319 123.61303,-74.30071 123.84703,-74.30071 0.39008,0 0.22335,154.29091 -0.18414,170.39645 l -0.32619,12.89223 -61.8436,-37.27893 z"
         style="opacity:1;fill:#7ccff4;fill-opacity:1;stroke:none;stroke-width:5.05076265;stroke-linecap:butt;stroke-linejoin:round;stroke-miterlimit:4;stroke-dasharray:none;stroke-dashoffset:0;stroke-opacity:1" />
      <path
         inkscape:connector-curvature="0"
         id="path5277-3-5-1"
         d="m 404.68529,279.82577 c -6.61433,29.19111 14.64462,140.16993 -3.25471,147.92916 -39.03582,-67.44487 -85.93991,-95.6326 -85.93991,-95.6326 0,0 60.69744,-43.43836 89.19462,-52.29656 z"
         style="opacity:1;fill:#98ddf4;fill-opacity:1;stroke:none;stroke-width:5.05076265;stroke-linecap:butt;stroke-linejoin:round;stroke-miterlimit:4;stroke-dasharray:none;stroke-dashoffset:0;stroke-opacity:1"
         sodipodi:nodetypes="cccc" />
      <path
         inkscape:connector-curvature="0"
         id="path5277-3-5-2"
         d="m 242.06468,180.2752 c 22.05162,20.23909 128.93495,56.90152 126.78022,76.29157 -77.92596,0.38615 -125.68594,27.09807 -125.68594,27.09807 0,0 -7.55838,-74.25593 -1.09428,-103.38964 z"
         style="opacity:1;fill:#98ddf4;fill-opacity:1;stroke:none;stroke-width:5.05076265;stroke-linecap:butt;stroke-linejoin:round;stroke-miterlimit:4;stroke-dasharray:none;stroke-dashoffset:0;stroke-opacity:1"
         sodipodi:nodetypes="cccc" />
      <path
         inkscape:connector-curvature="0"
         id="path5277-3-5-7"
         d="m 77.882103,269.84632 c 28.774877,-8.23984 115.849877,-80.25486 131.261837,-68.29316 -40.35777,66.66225 -42.51269,121.3422 -42.51269,121.3422 0,0 -67.276995,-32.32458 -88.749147,-53.04904 z"
         style="opacity:1;fill:#98ddf4;fill-opacity:1;stroke:none;stroke-width:5.05076265;stroke-linecap:butt;stroke-linejoin:round;stroke-miterlimit:4;stroke-dasharray:none;stroke-dashoffset:0;stroke-opacity:1"
         sodipodi:nodetypes="cccc" />
      <path
         inkscape:connector-curvature="0"
         id="path5277-3-5-0"
         d="m 74.464715,458.96886 c 6.991172,-29.10389 -12.839851,-140.34636 5.158924,-147.87499 38.164281,67.94183 84.701591,96.73106 84.701591,96.73106 0,0 -61.25166,42.65335 -89.860515,51.14393 z"
         style="opacity:1;fill:#98ddf4;fill-opacity:1;stroke:none;stroke-width:5.05076265;stroke-linecap:butt;stroke-linejoin:round;stroke-miterlimit:4;stroke-dasharray:none;stroke-dashoffset:0;stroke-opacity:1"
         sodipodi:nodetypes="cccc" />
      <path
         sodipodi:nodetypes="cccccssccccccccc"
         inkscape:connector-curvature="0"
         d="m 76.344456,273.55141 163.717404,-94.3967 163.6086,94.585 -0.1085,188.9589 -131.1038,-77.1223 c 9.0732,-15.7215 5.5582,-35.6558 -8.324,-47.3043 -13.8822,-11.6486 -34.124,-11.6486 -48.0062,0 -13.8822,11.6485 -17.3972,31.5828 -8.3385,47.273 l -131.529504,76.9894 z m 129.439504,76.0371 -129.425604,-76.0002 m 163.704504,-92.85544 0.092,148.18224 m 34.6501,20.4525 128.8736,-75.6209"
         style="fill:none;fill-opacity:1;fill-rule:evenodd;stroke:#275d75;stroke-width:12.00000191;stroke-linecap:round;stroke-linejoin:round;stroke-miterlimit:4;stroke-dasharray:none;stroke-opacity:1"
         id="path7851-1-6-8-3-1" />
    </g>
    <g
       style="font-style:normal;font-weight:normal;font-size:54.25259399px;line-height:125%;font-family:sans-serif;letter-spacing:0px;word-spacing:0px;fill:#275d75;fill-opacity:1;stroke:none;stroke-width:1px;stroke-linecap:butt;stroke-linejoin:miter;stroke-opacity:1"
       id="text7134-5-1-6-3-1-4">
      <path
         d="m 729.15529,179.45793 0,123.65523 -21.72816,0 0,-123.65523 21.72816,0 z m 4.6386,-38.81773 q 0,3.17378 -1.34275,5.98135 -1.22068,2.68551 -3.41791,4.88274 -2.07517,2.07516 -5.00481,3.29584 -2.80757,1.22068 -5.98134,1.22068 -3.17378,0 -5.98135,-1.22068 -2.68551,-1.22068 -4.76067,-3.29584 -2.07516,-2.19723 -3.29584,-4.88274 -1.22069,-2.80757 -1.22069,-5.98135 0,-3.17377 1.22069,-5.98135 1.22068,-2.92964 3.29584,-5.0048 2.07516,-2.19723 4.76067,-3.41791 2.80757,-1.22068 5.98135,-1.22068 3.17377,0 5.98134,1.22068 2.92964,1.22068 5.00481,3.41791 2.19723,2.07516 3.41791,5.0048 1.34275,2.80758 1.34275,5.98135 z"
         style="font-style:normal;font-variant:normal;font-weight:normal;font-stretch:normal;font-size:244.13667297px;font-family:Lato;-inkscape-font-specification:Lato;fill:#275d75;fill-opacity:1"
         id="path4362" />
      <path
         d="m 850.91465,201.43023 q -0.97655,1.34276 -1.9531,2.07517 -0.97654,0.73241 -2.6855,0.73241 -1.83103,0 -4.02826,-1.46482 -2.19723,-1.58689 -5.49307,-3.41792 -3.17378,-1.83102 -7.93444,-3.29584 -4.6386,-1.58689 -11.47443,-1.58689 -9.15512,0 -16.11302,3.29584 -6.95789,3.17378 -11.71856,9.2772 -4.63859,6.10342 -7.07996,14.77027 -2.3193,8.66685 -2.3193,19.40886 0,11.23029 2.56344,20.01921 2.56343,8.66685 7.20203,14.6482 4.76066,5.85928 11.35235,9.03306 6.71376,3.05171 15.01441,3.05171 7.93444,0 13.06131,-1.83103 5.12687,-1.95309 8.42271,-4.27239 3.41792,-2.3193 5.61515,-4.15032 2.3193,-1.9531 4.51653,-1.9531 2.6855,0 4.15032,2.07516 l 6.10342,7.93445 q -4.02826,5.0048 -9.15513,8.54478 -5.12687,3.53998 -11.10822,5.98135 -5.85928,2.3193 -12.3289,3.41791 -6.46962,1.09862 -13.18338,1.09862 -11.59649,0 -21.60609,-4.2724 -9.88754,-4.27239 -17.21164,-12.3289 -7.3241,-8.17858 -11.47442,-20.01921 -4.15033,-11.84062 -4.15033,-26.9771 0,-13.79372 3.78412,-25.51228 3.90619,-11.71856 11.23029,-20.14128 7.44617,-8.54478 18.18818,-13.30544 10.86408,-4.76067 24.90194,-4.76067 13.06131,0 22.94885,4.27239 10.0096,4.15033 17.69991,11.84063 l -5.73721,7.81237 z"
         style="font-style:normal;font-variant:normal;font-weight:normal;font-stretch:normal;font-size:244.13667297px;font-family:Lato;-inkscape-font-specification:Lato;fill:#275d75;fill-opacity:1"
         id="path4364" />
      <path
         d="m 929.47707,177.50484 q 11.10821,0 20.50748,3.78412 9.52133,3.66205 16.35715,10.74201 6.9579,6.9579 10.86409,17.33371 3.90618,10.25374 3.90618,23.43712 0,5.12687 -1.09861,6.83582 -1.09862,1.70896 -4.15033,1.70896 l -82.64026,0 q 0.24414,11.71856 3.17378,20.38541 2.92964,8.66686 8.05651,14.52614 5.12687,5.73721 12.20683,8.66685 7.07996,2.80757 15.86888,2.80757 8.17858,0 14.03786,-1.83103 5.98135,-1.95309 10.25374,-4.15032 4.2724,-2.19723 7.07997,-4.02825 2.92964,-1.9531 5.0048,-1.9531 2.6855,0 4.15032,2.07516 l 6.10342,7.93445 q -4.02826,4.88273 -9.6434,8.54478 -5.61514,3.53998 -12.08476,5.85928 -6.34756,2.3193 -13.18339,3.41791 -6.83582,1.22069 -13.54958,1.22069 -12.81718,0 -23.68126,-4.2724 -10.74201,-4.39446 -18.67645,-12.6951 -7.81238,-8.42272 -12.20684,-20.75162 -4.39446,-12.3289 -4.39446,-28.31985 0,-12.93925 3.90619,-24.16953 4.02825,-11.23029 11.47442,-19.40887 7.44617,-8.30065 18.18819,-12.93924 10.74201,-4.76067 24.16953,-4.76067 z m 0.48827,15.99095 q -15.74682,0 -24.77987,9.15513 -9.03306,9.03306 -11.23029,25.14608 l 67.62586,0 q 0,-7.56824 -2.19723,-13.79373 -2.07516,-6.34755 -6.22549,-10.86408 -4.02825,-4.6386 -9.88753,-7.07996 -5.85928,-2.56344 -13.30545,-2.56344 z"
         style="font-style:normal;font-variant:normal;font-weight:normal;font-stretch:normal;font-size:244.13667297px;font-family:Lato;-inkscape-font-specification:Lato;fill:#275d75;fill-opacity:1"
         id="path4366" />
      <path
         d="m 1079.583,199.84335 q -1.4649,2.6855 -4.5166,2.6855 -1.831,0 -4.1503,-1.34275 -2.3193,-1.34275 -5.7372,-2.92964 -3.2958,-1.70896 -7.9344,-3.05171 -4.6386,-1.46482 -10.9862,-1.46482 -5.4931,0 -9.8875,1.46482 -4.3945,1.34275 -7.5683,3.78412 -3.0517,2.44136 -4.7606,5.73721 -1.5869,3.17378 -1.5869,6.9579 0,4.76066 2.6855,7.93444 2.8076,3.17377 7.3241,5.49307 4.5165,2.3193 10.2537,4.15033 5.7372,1.70895 11.7186,3.78411 6.1034,1.9531 11.8406,4.39446 5.7372,2.44137 10.2538,6.10342 4.5165,3.66205 7.202,9.03306 2.8076,5.24894 2.8076,12.6951 0,8.54479 -3.0517,15.86889 -3.0518,7.20203 -9.0331,12.57304 -5.9814,5.24894 -14.6482,8.30064 -8.6669,3.05171 -20.0192,3.05171 -12.9393,0 -23.4371,-4.15032 -10.4979,-4.27239 -17.82201,-10.86408 l 5.12691,-8.30065 q 0.9765,-1.58689 2.3193,-2.44137 1.3427,-0.85447 3.4179,-0.85447 2.1972,0 4.6386,1.70895 2.4413,1.70896 5.8593,3.78412 3.5399,2.07516 8.5447,3.78412 5.0048,1.70896 12.451,1.70896 6.3476,0 11.1082,-1.58689 4.7607,-1.70896 7.9345,-4.51653 3.1737,-2.80757 4.6386,-6.46962 1.5869,-3.66205 1.5869,-7.81238 0,-5.12687 -2.8076,-8.42271 -2.6855,-3.41792 -7.2021,-5.73721 -4.5165,-2.44137 -10.3758,-4.15033 -5.7372,-1.83102 -11.8406,-3.78412 -5.9813,-1.95309 -11.8406,-4.39446 -5.7372,-2.56343 -10.2538,-6.34755 -4.5165,-3.78412 -7.3241,-9.27719 -2.6855,-5.61515 -2.6855,-13.54959 0,-7.07996 2.9297,-13.54958 2.9296,-6.59169 8.5448,-11.47443 5.6151,-5.0048 13.7937,-7.93444 8.1786,-2.92964 18.6764,-2.92964 12.2069,0 21.8503,3.90619 9.7654,3.78412 16.8454,10.49787 l -4.8827,7.93445 z"
         style="font-style:normal;font-variant:normal;font-weight:normal;font-stretch:normal;font-size:244.13667297px;font-family:Lato;-inkscape-font-specification:Lato;fill:#275d75;fill-opacity:1"
         id="path4368" />
      <path
         d="m 1151.382,305.06625 q -14.6482,0 -22.5826,-8.17858 -7.8124,-8.17857 -7.8124,-23.55918 l 0,-75.68237 -14.8923,0 q -1.9531,0 -3.2959,-1.09862 -1.3427,-1.22068 -1.3427,-3.66205 l 0,-8.66685 20.2633,-2.56344 5.0048,-38.20738 q 0.3662,-1.83103 1.5869,-2.92965 1.3428,-1.22068 3.4179,-1.22068 l 10.9862,0 0,42.60185 35.766,0 0,15.74682 -35.766,0 0,74.21755 q 0,7.81237 3.7841,11.59649 3.7841,3.78412 9.7655,3.78412 3.4179,0 5.8593,-0.85448 2.5634,-0.97655 4.3944,-2.07516 1.831,-1.09862 3.0517,-1.9531 1.3428,-0.97654 2.3193,-0.97654 1.709,0 3.0517,2.07516 l 6.3476,10.37581 q -5.6152,5.24893 -13.5496,8.30064 -7.9344,2.92964 -16.3572,2.92964 z"
         style="font-style:normal;font-variant:normal;font-weight:normal;font-stretch:normal;font-size:244.13667297px;font-family:Lato;-inkscape-font-specification:Lato;fill:#275d75;fill-opacity:1"
         id="path4370" />
      <path
         d="m 1221.6629,179.45793 0,78.85615 q 0,14.03786 6.3475,21.72816 6.4696,7.69031 19.653,7.69031 9.5214,0 17.9441,-4.51653 8.4227,-4.51653 15.5027,-12.57304 l 0,-91.18505 21.7281,0 0,123.65523 -12.9392,0 q -4.6386,0 -5.8593,-4.51653 l -1.709,-13.30545 q -8.0565,8.91099 -18.0661,14.40407 -10.0096,5.371 -22.9488,5.371 -10.1317,0 -17.9441,-3.29584 -7.6903,-3.41792 -12.9392,-9.52133 -5.249,-6.10342 -7.9345,-14.77027 -2.5634,-8.66685 -2.5634,-19.16473 l 0,-78.85615 21.7282,0 z"
         style="font-style:normal;font-variant:normal;font-weight:normal;font-stretch:normal;font-size:244.13667297px;font-family:Lato;-inkscape-font-specification:Lato;fill:#275d75;fill-opacity:1"
         id="path4372" />
      <path
         d="m 1426.4058,303.11316 q -4.6386,0 -5.8593,-4.51653 l -1.9531,-15.0144 q -7.9344,9.64339 -18.1881,15.50267 -10.1317,5.73722 -23.3151,5.73722 -10.6199,0 -19.2868,-4.02826 -8.6669,-4.15032 -14.7703,-12.08476 -6.1034,-7.93445 -9.3992,-19.77508 -3.2959,-11.84062 -3.2959,-27.22123 0,-13.67166 3.6621,-25.39022 3.662,-11.84063 10.4979,-20.50748 6.8358,-8.66685 16.7233,-13.54958 10.0096,-5.00481 22.4606,-5.00481 11.3523,0 19.4089,3.90619 8.1785,3.78412 14.5261,10.74201 l 0,-68.6024 21.7282,0 0,179.80666 -12.9393,0 z m -42.2356,-15.86888 q 10.742,0 18.6764,-4.88274 8.0565,-4.88273 14.7703,-13.79372 l 0,-59.69142 q -6.1034,-8.05651 -13.1834,-11.35235 -7.08,-3.29585 -15.8689,-3.29585 -17.2116,0 -26.4888,12.32891 -9.2772,12.3289 -9.2772,35.15568 0,12.08476 2.0752,20.75161 2.0751,8.54479 6.1034,14.15993 4.0282,5.49308 9.8875,8.05651 5.8593,2.56344 13.3055,2.56344 z"
         style="font-style:normal;font-variant:normal;font-weight:normal;font-stretch:normal;font-size:244.13667297px;font-family:Lato;-inkscape-font-specification:Lato;fill:#275d75;fill-opacity:1"
         id="path4374" />
      <path
         d="m 1496.8507,179.45793 0,123.65523 -21.7282,0 0,-123.65523 21.7282,0 z m 4.6386,-38.81773 q 0,3.17378 -1.3428,5.98135 -1.2207,2.68551 -3.4179,4.88274 -2.0752,2.07516 -5.0048,3.29584 -2.8076,1.22068 -5.9814,1.22068 -3.1737,0 -5.9813,-1.22068 -2.6855,-1.22068 -4.7607,-3.29584 -2.0751,-2.19723 -3.2958,-4.88274 -1.2207,-2.80757 -1.2207,-5.98135 0,-3.17377 1.2207,-5.98135 1.2207,-2.92964 3.2958,-5.0048 2.0752,-2.19723 4.7607,-3.41791 2.8076,-1.22068 5.9813,-1.22068 3.1738,0 5.9814,1.22068 2.9296,1.22068 5.0048,3.41791 2.1972,2.07516 3.4179,5.0048 1.3428,2.80758 1.3428,5.98135 z"
         style="font-style:normal;font-variant:normal;font-weight:normal;font-stretch:normal;font-size:244.13667297px;font-family:Lato;-inkscape-font-specification:Lato;fill:#275d75;fill-opacity:1"
         id="path4376" />
      <path
         d="m 1584.675,177.50484 q 13.5496,0 24.4137,4.51653 10.8641,4.51653 18.5544,12.81717 7.6903,8.30065 11.7185,20.14128 4.1504,11.71856 4.1504,26.24469 0,14.6482 -4.1504,26.36676 -4.0282,11.71856 -11.7185,20.01921 -7.6903,8.30065 -18.5544,12.81718 -10.8641,4.39446 -24.4137,4.39446 -13.6716,0 -24.6578,-4.39446 -10.8641,-4.51653 -18.5544,-12.81718 -7.6903,-8.30065 -11.8406,-20.01921 -4.0282,-11.71856 -4.0282,-26.36676 0,-14.52613 4.0282,-26.24469 4.1503,-11.84063 11.8406,-20.14128 7.6903,-8.30064 18.5544,-12.81717 10.9862,-4.51653 24.6578,-4.51653 z m 0,110.34978 q 18.3103,0 27.3433,-12.20684 9.0331,-12.3289 9.0331,-34.3012 0,-22.09437 -9.0331,-34.42327 -9.033,-12.3289 -27.3433,-12.3289 -9.2772,0 -16.2351,3.17377 -6.8358,3.17378 -11.4744,9.15513 -4.5165,5.98135 -6.8358,14.77027 -2.1972,8.66685 -2.1972,19.653 0,21.9723 9.033,34.3012 9.1551,12.20684 27.7095,12.20684 z"
         style="font-style:normal;font-variant:normal;font-weight:normal;font-stretch:normal;font-size:244.13667297px;font-family:Lato;-inkscape-font-specification:Lato;fill:#275d75;fill-opacity:1"
         id="path4378" />
    </g>
  </g>
</svg>
